fontCallback.success({"glyphs":{"S":{"x_min":7.453125,"x_max":754.1875,"ha":794,"o":"m 754 979 l 729 845 q 607 901 668 882 q 490 919 546 919 q 314 866 379 919 q 248 723 248 812 q 272 648 248 674 q 397 592 297 622 l 471 572 q 644 481 596 536 q 693 326 693 425 q 585 76 693 172 q 300 -19 477 -19 q 154 -3 227 -19 q 7 44 81 12 l 32 185 q 168 115 100 139 q 303 91 236 91 q 489 148 419 91 q 558 297 558 205 q 531 389 558 358 q 411 446 503 421 l 337 467 q 165 552 210 504 q 119 686 119 600 q 223 934 119 837 q 496 1030 328 1030 q 625 1018 561 1030 q 754 979 689 1005 "},"¦":{"x_min":158.703125,"x_max":262.46875,"ha":421,"o":"m 262 276 l 262 -237 l 158 -237 l 158 276 l 262 276 m 262 971 l 262 457 l 158 457 l 158 971 l 262 971 "},"/":{"x_min":-91.5625,"x_max":533.765625,"ha":421,"o":"m 424 1012 l 533 1012 l 16 -128 l -91 -128 l 424 1012 "},"₢":{"x_min":52.21875,"x_max":794.875,"ha":795,"o":"m 449 94 q 547 122 499 101 q 686 212 619 151 l 659 50 q 526 -2 594 15 q 391 -19 459 -19 q 142 86 231 -19 q 52 380 52 191 q 86 617 52 501 q 184 830 120 734 q 339 982 252 933 q 541 1030 425 1030 q 676 1006 613 1030 q 794 934 739 982 l 771 790 q 658 887 718 855 q 529 919 599 919 q 363 864 435 919 q 239 694 290 808 q 188 539 205 621 q 170 375 170 457 q 229 164 170 236 q 357 94 276 105 l 452 683 l 544 683 l 526 577 q 613 668 563 636 q 722 699 663 699 q 751 697 736 699 q 779 691 766 695 l 763 579 q 730 594 748 589 q 693 598 712 598 q 564 530 619 598 q 491 348 510 462 l 449 94 "},"y":{"x_min":-31.53125,"x_max":753.859375,"ha":739,"o":"m 309 -70 q 182 -252 231 -216 q 57 -288 133 -288 l -31 -288 l -12 -184 l 51 -184 q 132 -155 99 -184 q 205 -44 165 -127 l 241 27 l 89 759 l 208 759 l 321 177 l 635 759 l 753 759 l 309 -70 "},"฿":{"x_min":43.40625,"x_max":735.3125,"ha":815,"o":"m 297 787 l 250 520 l 375 520 l 422 787 l 297 787 m 233 423 l 177 98 l 302 98 l 358 423 l 233 423 m 284 0 l 43 0 l 198 885 l 439 885 l 471 1068 l 532 1068 l 500 885 q 687 828 628 884 q 731 667 749 771 q 671 537 716 585 q 553 477 626 489 q 672 398 635 458 q 693 248 708 338 q 583 64 672 129 q 345 0 492 -1 l 312 -191 l 251 -191 l 284 0 m 483 787 l 436 520 q 553 553 510 523 q 613 653 600 585 q 588 754 624 720 q 483 787 556 784 m 419 423 l 363 98 q 507 138 455 99 q 573 261 558 178 q 550 383 588 344 q 419 423 512 423 "},"Á":{"x_min":-66.796875,"x_max":768.78125,"ha":855,"o":"m 460 1012 l 599 1012 l 768 0 l 639 0 l 601 259 l 192 259 l 63 0 l -66 0 l 460 1012 m 504 877 l 248 373 l 582 373 l 504 877 m 605 1287 l 731 1287 l 544 1108 l 447 1108 l 605 1287 "},"g":{"x_min":40.015625,"x_max":745.359375,"ha":794,"o":"m 745 759 l 628 94 q 500 -193 595 -99 q 244 -288 405 -288 q 134 -279 185 -288 q 40 -248 84 -269 l 61 -127 q 148 -171 102 -157 q 247 -185 195 -185 q 423 -121 354 -185 q 514 65 491 -56 l 523 122 q 414 31 476 62 q 280 0 352 0 q 117 76 176 0 q 57 286 57 152 q 93 492 57 391 q 194 670 129 592 q 295 750 238 722 q 416 777 353 777 q 536 742 485 777 q 613 641 588 706 l 632 759 l 745 759 m 576 480 q 537 623 576 573 q 425 673 497 673 q 341 653 381 673 q 271 598 301 634 q 199 461 225 540 q 173 298 173 382 q 213 154 173 204 q 326 104 252 104 q 504 211 433 104 q 576 480 576 319 "},"²":{"x_min":45.4375,"x_max":480.859375,"ha":501,"o":"m 402 739 l 167 530 l 436 530 l 422 453 l 45 453 l 58 527 l 316 758 q 369 818 352 789 q 387 874 387 847 q 362 934 387 911 q 293 956 336 956 q 219 945 259 956 q 128 909 179 933 l 143 992 q 231 1021 190 1011 q 312 1030 273 1030 q 434 992 387 1030 q 480 893 480 953 q 461 812 480 851 q 402 739 442 774 "},"ë":{"x_min":57.65625,"x_max":713.484375,"ha":769,"o":"m 600 447 q 603 470 602 458 q 604 493 604 481 q 561 623 604 575 q 442 672 517 672 q 294 613 358 672 q 198 446 230 554 l 600 447 m 698 349 l 176 349 q 171 309 172 324 q 170 283 170 294 q 222 137 170 189 q 369 86 274 86 q 508 104 442 86 q 630 158 573 122 l 608 34 q 483 -6 548 7 q 352 -19 419 -19 q 133 55 210 -19 q 57 270 57 131 q 95 491 57 389 q 207 673 133 593 q 320 750 255 723 q 460 777 386 777 q 644 700 576 777 q 713 493 713 623 q 709 426 713 461 q 698 349 706 390 m 321 1052 l 447 1052 l 422 915 l 297 915 l 321 1052 m 560 1052 l 684 1052 l 660 915 l 536 915 l 560 1052 "},"Î":{"x_min":33.90625,"x_max":473.46875,"ha":368,"o":"m 210 1012 l 335 1012 l 157 0 l 33 0 l 210 1012 m 245 1289 l 377 1289 l 473 1108 l 391 1108 l 305 1229 l 177 1108 l 86 1108 l 245 1289 "},"Ꙅ":{"x_min":-4.1875,"x_max":730.328125,"ha":794,"o":"m 180 979 q 322 1018 253 1005 q 455 1030 391 1030 q 676 953 605 1030 q 724 741 747 876 q 631 560 704 626 q 414 465 558 495 l 337 448 q 190 385 239 427 q 129 269 142 343 q 163 137 114 183 q 318 91 212 91 q 463 115 387 91 q 623 185 540 139 l 599 44 q 439 -3 515 12 q 298 -19 363 -19 q 51 56 127 -19 q 2 279 -23 132 q 102 476 24 402 q 323 579 180 550 l 401 596 q 548 651 506 617 q 602 752 591 685 q 569 876 616 832 q 422 919 522 919 q 298 901 363 919 q 155 845 232 883 l 180 979 "},"e":{"x_min":57.65625,"x_max":713.484375,"ha":769,"o":"m 600 447 q 603 470 602 458 q 604 493 604 481 q 561 623 604 575 q 442 672 517 672 q 294 613 358 672 q 198 446 230 554 l 600 447 m 698 349 l 176 349 q 171 309 172 324 q 170 283 170 294 q 222 137 170 189 q 369 86 274 86 q 508 104 442 86 q 630 158 573 122 l 608 34 q 483 -6 548 7 q 352 -19 419 -19 q 133 55 210 -19 q 57 270 57 131 q 95 491 57 389 q 207 673 133 593 q 320 750 255 723 q 460 777 386 777 q 644 700 576 777 q 713 493 713 623 q 709 426 713 461 q 698 349 706 390 "},"Ã":{"x_min":-66.796875,"x_max":771.921875,"ha":855,"o":"m 460 1012 l 599 1012 l 768 0 l 639 0 l 601 259 l 192 259 l 63 0 l -66 0 l 460 1012 m 504 877 l 248 373 l 582 373 l 504 877 m 547 1159 l 526 1176 l 525 1177 q 476 1199 499 1199 q 438 1181 455 1199 q 411 1130 422 1164 l 335 1130 q 394 1241 356 1204 q 483 1279 431 1279 q 523 1271 504 1279 q 564 1247 542 1264 l 584 1229 q 606 1215 594 1220 q 630 1211 617 1211 q 671 1229 653 1211 q 695 1279 688 1247 l 771 1279 q 713 1167 751 1205 q 619 1130 674 1130 q 583 1137 600 1130 q 547 1159 566 1144 "},"J":{"x_min":-205.15625,"x_max":332,"ha":368,"o":"m 208 1012 l 332 1012 l 167 70 q 58 -195 134 -113 q -156 -278 -18 -278 l -205 -278 l -185 -162 l -146 -162 q -21 -110 -64 -162 q 43 70 21 -58 l 208 1012 "},"»":{"x_min":77.3125,"x_max":693.140625,"ha":771,"o":"m 347 95 l 370 231 l 588 415 l 434 596 l 457 718 l 693 434 l 683 379 l 347 95 m 77 95 l 101 231 l 316 415 l 163 596 l 185 718 l 421 434 l 412 379 l 77 95 "},"ꙮ":{"x_min":28.453125,"x_max":1070.3125,"ha":1099,"o":"m 607 14 l 689 14 l 670 -90 l 589 -90 l 607 14 m 284 14 l 366 14 l 347 -90 l 266 -90 l 284 14 m 750 826 l 831 826 l 813 720 l 731 720 l 750 826 m 426 826 l 508 826 l 490 720 l 408 720 l 426 826 m 194 421 l 276 421 l 258 315 l 176 315 l 194 421 m 840 421 l 922 421 l 904 315 l 822 315 l 840 421 m 336 503 q 258 552 313 552 q 163 503 203 552 q 108 372 122 455 q 116 240 93 288 q 195 191 140 191 q 290 240 250 191 q 345 372 330 288 q 336 503 360 455 m 569 909 q 491 957 545 957 q 395 909 436 957 q 340 777 354 860 q 349 645 325 693 q 427 597 373 597 q 522 645 482 597 q 577 777 562 693 q 569 909 592 860 m 891 909 q 813 957 868 957 q 718 909 758 957 q 662 777 677 860 q 672 645 648 693 q 750 597 695 597 q 845 645 805 597 q 900 777 885 693 q 891 909 914 860 m 982 503 q 904 552 959 552 q 809 503 849 552 q 753 372 768 455 q 763 240 739 288 q 841 191 786 191 q 936 240 896 191 q 991 372 976 288 q 982 503 1005 455 m 659 503 q 581 552 636 552 q 485 503 526 552 q 430 372 444 455 q 439 240 415 288 q 518 191 463 191 q 613 240 573 191 q 667 372 653 288 q 659 503 682 455 m 426 97 q 348 145 403 145 q 253 97 293 145 q 198 -34 212 49 q 207 -166 183 -118 q 285 -214 230 -214 q 380 -166 340 -214 q 435 -34 421 -118 q 426 97 450 49 m 749 97 q 671 145 726 145 q 576 97 616 145 q 521 -34 535 49 q 530 -166 506 -118 q 608 -214 553 -214 q 703 -166 663 -214 q 758 -34 744 -118 q 749 97 773 49 m 917 626 q 1043 556 1003 626 q 1063 370 1083 487 q 978 187 1043 256 q 828 118 914 118 l 826 118 q 830 -34 847 55 q 746 -219 811 -150 q 595 -288 682 -288 q 468 -220 508 -288 q 452 -182 457 -202 q 423 -219 439 -202 q 272 -288 360 -288 q 145 -219 185 -288 q 126 -34 106 -151 q 184 118 142 55 q 182 118 183 118 q 55 186 95 118 q 35 370 14 255 q 120 556 55 487 q 271 626 184 626 l 272 626 q 268 777 252 687 q 352 962 288 893 q 503 1031 416 1031 q 630 963 590 1031 q 646 925 640 945 q 675 963 659 945 q 826 1031 739 1031 q 953 962 913 1031 q 973 777 993 893 q 914 626 957 687 l 917 626 m 516 421 l 598 421 l 580 315 l 498 315 l 516 421 "},"₨":{"x_min":35.953125,"x_max":1286.59375,"ha":1342,"o":"m 316 900 l 253 540 l 408 540 q 551 586 497 540 q 620 720 604 632 q 598 854 636 809 q 471 900 560 900 l 316 900 m 744 4 l 746 0 l 613 0 l 541 259 q 478 394 514 361 q 368 427 441 427 l 233 427 l 159 0 l 35 0 l 212 1012 l 491 1012 q 711 940 647 1012 q 750 720 775 867 q 682 562 733 625 q 551 474 631 499 q 617 411 588 459 q 668 276 646 362 l 703 154 q 812 103 756 120 q 929 84 870 84 q 1056 114 1008 84 q 1114 200 1104 145 q 1097 278 1123 250 q 970 330 1070 305 l 933 340 q 795 415 833 364 q 773 554 758 465 q 870 719 792 661 q 1075 777 949 777 q 1190 767 1137 777 q 1286 737 1243 757 l 1266 619 q 1174 659 1223 646 q 1070 673 1125 673 q 940 644 986 673 q 883 559 893 616 q 901 491 875 516 q 1013 444 927 466 l 1049 434 q 1205 354 1164 406 q 1230 209 1247 302 q 1126 42 1212 103 q 908 -19 1040 -19 q 796 -7 853 -19 q 744 4 770 -2 "},"₪":{"x_min":-30.171875,"x_max":1031.921875,"ha":1047,"o":"m 184 1010 l 493 1012 q 701 911 644 1012 q 717 612 757 810 l 664 363 l 555 363 l 603 595 q 605 829 637 758 q 469 901 574 901 l 270 901 l 77 -19 l -30 -19 l 184 1010 m 812 -19 l 507 -19 q 299 81 356 -19 q 284 380 243 182 l 336 629 l 445 629 l 397 397 q 395 163 363 234 q 531 91 426 91 l 731 91 l 922 1012 l 1031 1012 l 812 -19 "},"Ꙭ":{"x_min":56.640625,"x_max":1640.828125,"ha":1697,"o":"m 435 568 l 564 568 l 534 396 l 405 396 l 435 568 m 1149 568 l 1278 568 l 1248 396 l 1119 396 l 1149 568 m 584 1030 q 866 888 776 1030 q 902 811 888 852 q 965 888 930 852 q 1298 1030 1106 1030 q 1579 888 1490 1030 q 1627 505 1669 745 q 1445 123 1585 265 q 1113 -19 1305 -19 q 831 122 921 -19 q 794 199 809 158 q 731 123 766 158 q 400 -19 592 -19 q 118 122 208 -19 q 70 505 27 265 q 252 888 112 745 q 584 1030 392 1030 m 758 808 q 564 919 699 919 q 332 808 430 919 q 200 505 233 697 q 226 202 166 314 q 419 91 285 91 q 652 202 554 91 q 784 505 750 314 q 758 808 817 697 m 1472 808 q 1279 919 1413 919 q 1046 808 1144 919 q 913 505 947 697 q 939 202 880 314 q 1133 91 999 91 q 1365 202 1267 91 q 1497 505 1463 314 q 1472 808 1530 697 "},"©":{"x_min":172.953125,"x_max":1077.015625,"ha":1250,"o":"m 625 1007 q 797 969 717 1007 q 944 858 878 932 q 1044 695 1011 784 q 1077 502 1077 607 q 1044 310 1077 399 q 944 148 1011 222 q 797 37 878 74 q 625 0 717 0 q 452 37 532 0 q 305 148 371 74 q 205 310 238 222 q 172 502 172 399 q 205 695 172 607 q 305 858 238 784 q 452 969 371 932 q 625 1007 532 1007 m 625 937 q 476 905 545 937 q 349 809 406 873 q 263 668 292 746 q 233 502 233 590 q 263 338 233 415 q 349 197 292 261 q 476 101 406 133 q 625 69 545 69 q 774 101 705 69 q 901 197 844 133 q 986 337 958 260 q 1015 502 1015 413 q 986 669 1015 592 q 901 809 957 746 q 774 905 844 873 q 625 937 705 937 m 807 771 l 807 683 q 727 716 767 706 q 647 727 687 727 q 505 668 556 727 q 454 502 454 609 q 506 335 454 394 q 653 276 558 276 q 730 287 693 276 q 807 320 767 297 l 807 234 q 724 205 766 215 q 640 196 682 196 q 432 278 508 196 q 355 502 355 361 q 432 726 355 644 q 640 808 508 808 q 726 798 685 808 q 807 771 767 789 "},"ò":{"x_min":57.65625,"x_max":707.390625,"ha":764,"o":"m 317 -19 q 127 62 197 -19 q 57 287 57 145 q 81 456 57 370 q 143 600 105 541 q 279 734 204 691 q 447 777 353 777 q 635 697 564 777 q 707 486 707 616 q 683 306 707 396 q 621 158 659 217 q 486 23 561 67 q 317 -19 412 -19 m 173 291 q 212 137 173 188 q 330 86 251 86 q 517 195 442 86 q 591 473 591 305 q 551 621 591 571 q 435 672 512 672 q 322 639 371 672 q 233 539 272 606 q 189 424 204 489 q 173 291 173 360 m 428 1110 l 556 857 l 462 857 l 308 1110 l 428 1110 "},"Ꙫ":{"x_min":57.734375,"x_max":1011.375,"ha":1069,"o":"m 353 568 l 482 568 l 452 396 l 323 396 l 353 568 m 609 568 l 738 568 l 708 396 l 579 396 l 609 568 m 805 122 q 442 -19 653 -19 q 129 122 231 -19 q 70 505 27 265 q 263 888 112 745 q 627 1030 415 1030 q 940 888 838 1030 q 999 505 1041 745 q 805 122 956 265 m 823 808 q 606 919 754 919 q 350 808 458 919 q 210 505 243 697 q 244 202 176 314 q 461 91 313 91 q 717 202 609 91 q 857 505 824 314 q 823 808 891 697 "},"^":{"x_min":132.25,"x_max":914.921875,"ha":1047,"o":"m 583 1012 l 914 634 l 792 634 l 523 902 l 255 634 l 132 634 l 463 1012 l 583 1012 "},"«":{"x_min":77.3125,"x_max":693.828125,"ha":771,"o":"m 422 718 l 398 581 l 182 398 l 336 218 l 314 95 l 77 379 l 87 434 l 422 718 m 693 718 l 670 581 l 453 398 l 607 218 l 584 95 l 348 379 l 358 434 l 693 718 "},"D":{"x_min":33.90625,"x_max":902.71875,"ha":962,"o":"m 210 1012 l 476 1012 q 794 913 687 1012 q 902 617 902 813 q 861 368 902 488 q 748 166 820 248 q 564 41 676 82 q 300 0 453 0 l 33 0 l 210 1012 m 314 900 l 177 112 l 339 112 q 659 244 545 112 q 772 617 772 377 q 699 831 772 763 q 470 900 626 900 l 314 900 "},"ꙥ":{"x_min":-20.671875,"x_max":1130.953125,"ha":1125,"o":"m -20 0 l -2 103 q 161 208 115 123 q 277 635 221 318 l 299 759 l 1130 759 l 1113 659 l 743 659 l 628 0 l 515 0 l 515 0 l 631 659 l 393 659 l 380 584 q 250 155 332 295 q -20 0 171 19 "},"₰":{"x_min":11.53125,"x_max":722.984375,"ha":795,"o":"m 84 349 l 11 415 q 198 577 129 577 q 302 524 272 577 q 364 452 343 452 q 435 497 393 452 q 341 721 341 592 q 347 789 341 754 q 427 965 368 906 q 576 1030 493 1030 q 695 965 647 1030 q 722 862 722 928 q 715 789 722 830 q 602 519 688 635 q 675 330 675 430 q 671 279 675 305 q 555 56 648 147 q 323 -19 477 -19 l 343 90 q 489 140 424 90 q 558 280 540 181 q 559 299 559 289 q 510 417 559 352 q 344 332 411 332 q 242 402 275 332 q 187 450 220 450 q 84 349 156 450 m 524 597 q 599 789 578 670 q 604 840 604 817 q 598 881 604 864 q 554 923 585 923 q 495 881 522 923 q 463 789 474 848 q 460 746 460 767 q 524 597 460 661 "},"ÿ":{"x_min":-31.53125,"x_max":753.859375,"ha":739,"o":"m 309 -70 q 182 -252 231 -216 q 57 -288 133 -288 l -31 -288 l -12 -184 l 51 -184 q 132 -155 99 -184 q 205 -44 165 -127 l 241 27 l 89 759 l 208 759 l 321 177 l 635 759 l 753 759 l 309 -70 m 311 1052 l 437 1052 l 412 915 l 287 915 l 311 1052 m 550 1052 l 674 1052 l 650 915 l 526 915 l 550 1052 "},"í":{"x_min":44.078125,"x_max":495.453125,"ha":347,"o":"m 177 759 l 290 759 l 155 0 l 44 0 l 177 759 m 374 1110 l 495 1110 l 251 855 l 157 855 l 374 1110 "},"w":{"x_min":106.484375,"x_max":1023.4375,"ha":1022,"o":"m 106 759 l 217 759 l 246 148 l 501 759 l 631 759 l 668 148 l 911 759 l 1023 759 l 710 0 l 579 0 l 546 629 l 284 0 l 152 0 l 106 759 "},"$":{"x_min":41.375,"x_max":712.140625,"ha":795,"o":"m 366 98 q 500 146 451 102 q 550 259 550 189 q 518 347 550 316 q 417 392 487 379 l 366 98 m 427 800 q 300 747 346 790 q 255 636 255 704 q 284 561 255 588 q 379 522 313 535 l 427 800 m 712 855 l 691 733 q 588 781 638 764 q 489 799 537 798 l 437 510 q 609 432 550 490 q 668 282 668 373 q 580 85 668 163 q 348 0 493 8 l 312 -204 l 251 -204 l 287 0 q 154 17 217 2 q 41 62 92 33 l 62 187 q 179 122 118 145 q 305 96 240 99 l 358 405 q 190 480 243 430 q 138 616 138 531 q 222 807 138 729 q 443 897 306 885 l 472 1055 l 533 1055 l 506 897 q 613 884 561 895 q 712 855 666 874 "},"Ꙩ":{"x_min":50.1875,"x_max":933.90625,"ha":983,"o":"m 570 919 q 391 865 468 919 q 256 698 314 810 q 200 547 219 627 q 181 385 181 467 q 241 168 181 244 q 413 91 302 91 q 592 146 514 91 q 726 311 670 202 q 783 464 763 384 q 803 625 803 545 q 741 842 803 765 q 570 919 680 919 m 410 -19 q 146 90 242 -19 q 50 393 50 201 q 87 617 50 503 q 191 822 124 732 q 363 979 268 927 q 573 1030 459 1030 q 837 921 741 1030 q 933 622 933 811 q 897 393 933 505 q 792 189 860 280 q 619 31 714 83 q 410 -19 525 -19 m 435 568 l 564 568 l 534 396 l 405 396 l 435 568 "},"\\":{"x_min":106.484375,"x_max":327.578125,"ha":421,"o":"m 210 1012 l 327 -128 l 225 -128 l 106 1012 l 210 1012 "},"ꙗ":{"x_min":51.546875,"x_max":975.96875,"ha":1058,"o":"m 842 381 l 729 381 q 525 340 592 381 q 459 213 459 299 q 493 120 459 153 q 587 86 527 86 q 747 159 678 86 q 837 354 815 231 l 842 381 m 963 433 l 887 0 l 775 0 l 796 115 q 683 13 746 47 q 542 -19 619 -19 q 399 39 455 -19 q 343 191 343 99 q 392 353 343 286 l 225 353 l 163 0 l 51 0 l 184 759 l 296 759 l 243 456 l 540 456 q 702 479 611 479 l 858 479 l 864 512 q 866 524 866 518 q 867 544 867 531 q 823 638 867 604 q 698 672 778 672 q 586 656 644 672 q 467 609 528 640 l 486 725 q 611 764 550 751 q 729 777 672 777 q 912 719 849 777 q 975 550 975 661 q 973 497 975 527 q 963 433 969 469 "},"Ì":{"x_min":33.90625,"x_max":364.953125,"ha":368,"o":"m 210 1012 l 335 1012 l 157 0 l 33 0 l 210 1012 m 274 1287 l 364 1108 l 279 1108 l 163 1287 l 274 1287 "},"µ":{"x_min":-16.609375,"x_max":739.609375,"ha":795,"o":"m -16 -288 l 167 759 l 279 759 l 197 286 q 192 255 194 272 q 190 219 190 237 q 226 122 190 156 q 328 88 262 88 q 474 145 418 88 q 549 316 530 202 l 627 759 l 739 759 l 637 175 q 634 153 635 162 q 633 136 633 143 q 640 105 633 115 q 665 95 648 95 q 681 99 671 95 q 711 111 692 102 l 694 10 q 643 -11 668 -4 q 595 -19 619 -19 q 532 8 555 -19 q 509 87 509 37 q 428 6 475 33 q 317 -19 380 -19 q 217 9 260 -19 q 161 86 175 38 l 95 -288 l -16 -288 "},"Ç":{"x_min":52.21875,"x_max":868.796875,"ha":873,"o":"m 868 934 l 843 790 q 719 887 784 855 q 577 919 653 919 q 394 864 473 919 q 257 694 314 808 q 201 539 221 621 q 182 375 182 457 q 246 164 182 236 q 434 91 311 91 q 596 121 518 91 q 748 212 674 151 l 720 50 q 573 -2 647 15 q 424 -19 499 -19 q 150 86 249 -19 q 52 380 52 191 q 89 617 52 501 q 198 830 127 734 q 367 982 271 933 q 590 1030 463 1030 q 738 1006 668 1030 q 868 934 808 982 m 455 0 q 488 -64 478 -34 q 498 -122 498 -93 q 453 -228 498 -189 q 331 -267 409 -267 q 278 -263 304 -267 q 226 -251 252 -259 l 240 -162 q 288 -179 264 -173 q 337 -184 312 -184 q 396 -163 374 -184 q 417 -107 417 -143 q 410 -63 417 -87 q 383 0 402 -38 l 455 0 "},"-":{"x_min":56.296875,"x_max":405.578125,"ha":451,"o":"m 75 436 l 405 436 l 386 324 l 56 324 l 75 436 "},"ꙑ":{"x_min":86.8125,"x_max":1081.28125,"ha":1133,"o":"m 968 759 l 1081 759 l 946 0 l 835 0 l 968 759 m 550 449 q 787 277 787 449 q 781 225 787 252 q 471 0 743 0 l 192 0 l 307 659 l 86 659 l 104 759 l 438 759 l 384 449 l 550 449 m 665 252 q 527 349 665 349 l 366 349 l 323 99 l 484 99 q 662 225 640 99 q 665 252 665 239 "},"Q":{"x_min":51.546875,"x_max":933.90625,"ha":983,"o":"m 451 -18 q 437 -19 444 -18 q 415 -19 430 -19 q 147 89 244 -19 q 51 389 51 198 q 88 617 51 503 q 191 822 124 731 q 362 978 267 926 q 573 1030 458 1030 q 837 921 741 1030 q 933 622 933 811 q 833 248 933 418 q 570 9 732 79 l 693 -179 l 556 -179 l 451 -18 m 570 919 q 391 865 468 919 q 256 698 314 810 q 200 547 219 627 q 181 385 181 467 q 241 168 181 244 q 413 91 302 91 q 592 146 514 91 q 726 311 670 202 q 783 464 763 384 q 803 625 803 545 q 741 842 803 765 q 570 919 680 919 "},"M":{"x_min":33.90625,"x_max":1045.140625,"ha":1078,"o":"m 210 1012 l 396 1012 l 502 330 l 855 1012 l 1045 1012 l 867 0 l 747 0 l 902 887 l 545 194 l 424 194 l 308 890 l 153 0 l 33 0 l 210 1012 "},"C":{"x_min":52.21875,"x_max":868.796875,"ha":873,"o":"m 868 934 l 843 790 q 719 887 784 855 q 577 919 653 919 q 394 864 473 919 q 257 694 314 808 q 201 539 221 621 q 182 375 182 457 q 246 164 182 236 q 434 91 311 91 q 596 121 518 91 q 748 212 674 151 l 720 50 q 573 -2 647 15 q 424 -19 499 -19 q 150 86 249 -19 q 52 380 52 191 q 89 617 52 501 q 198 830 127 734 q 367 982 271 933 q 590 1030 463 1030 q 738 1006 668 1030 q 868 934 808 982 "},"ꚋ":{"x_min":85.453125,"x_max":799.984375,"ha":902,"o":"m 103 759 l 758 759 l 740 659 l 467 659 l 427 427 l 581 427 q 775 379 741 427 q 789 169 815 322 l 756 -13 q 670 -223 731 -158 q 499 -288 609 -288 l 381 -288 l 400 -183 l 504 -183 q 597 -150 571 -183 q 644 -13 626 -113 l 676 165 q 676 302 695 276 q 570 330 656 330 l 410 330 l 352 0 l 242 0 l 357 659 l 85 659 l 103 759 "},"!":{"x_min":99.015625,"x_max":400.15625,"ha":501,"o":"m 276 1012 l 400 1012 l 322 568 l 267 326 l 168 326 l 198 568 l 276 1012 m 130 172 l 253 172 l 223 0 l 99 0 l 130 172 "},"ç":{"x_min":57.65625,"x_max":670.078125,"ha":687,"o":"m 670 730 l 647 607 q 561 655 607 639 q 467 672 516 672 q 365 651 413 672 q 283 591 316 630 q 202 453 231 532 q 173 288 173 373 q 219 136 173 186 q 360 86 265 86 q 458 101 406 86 q 567 148 510 117 l 546 25 q 445 -8 497 2 q 339 -19 394 -19 q 130 55 204 -19 q 57 271 57 131 q 95 489 57 389 q 208 668 133 588 q 328 750 259 722 q 479 777 398 777 q 574 766 527 777 q 670 730 621 754 m 363 0 q 396 -64 386 -34 q 406 -122 406 -93 q 361 -228 406 -189 q 239 -267 317 -267 q 186 -263 212 -267 q 134 -251 160 -259 l 148 -162 q 196 -179 172 -173 q 245 -184 220 -184 q 304 -163 282 -184 q 325 -107 325 -143 q 318 -63 325 -87 q 291 0 310 -38 l 363 0 "},"È":{"x_min":33.90625,"x_max":787.421875,"ha":789,"o":"m 210 1012 l 787 1012 l 767 897 l 314 897 l 261 597 l 696 597 l 676 482 l 241 482 l 177 115 l 641 115 l 621 0 l 33 0 l 210 1012 m 492 1287 l 582 1108 l 497 1108 l 381 1287 l 492 1287 "},"{":{"x_min":151.25,"x_max":756.21875,"ha":795,"o":"m 756 1055 l 738 958 l 691 958 q 579 931 608 958 q 532 803 551 904 l 501 632 q 444 474 481 523 q 339 411 407 425 q 409 363 384 398 q 434 278 434 328 q 431 239 434 261 q 424 191 429 217 l 396 25 q 391 -13 393 4 q 389 -47 389 -31 q 416 -109 389 -90 q 501 -128 442 -128 l 548 -128 l 531 -226 l 487 -226 q 323 -189 373 -226 q 274 -69 274 -152 q 276 -24 274 -47 q 282 23 278 -1 l 309 183 q 311 191 309 185 q 317 255 317 225 q 287 338 317 313 q 188 364 257 364 l 151 364 l 168 463 l 206 463 q 333 500 294 463 q 391 640 371 537 l 419 805 q 457 937 436 889 q 512 1012 478 986 q 582 1045 540 1035 q 706 1055 625 1055 l 756 1055 "},"X":{"x_min":-53.90625,"x_max":878.65625,"ha":856,"o":"m 171 1012 l 295 1012 l 452 647 l 734 1012 l 878 1012 l 502 529 l 729 0 l 606 0 l 422 426 l 89 0 l -53 0 l 372 544 l 171 1012 "},"ô":{"x_min":57.65625,"x_max":707.390625,"ha":764,"o":"m 317 -19 q 127 62 197 -19 q 57 287 57 145 q 81 456 57 370 q 143 600 105 541 q 279 734 204 691 q 447 777 353 777 q 635 697 564 777 q 707 486 707 616 q 683 306 707 396 q 621 158 659 217 q 486 23 561 67 q 317 -19 412 -19 m 173 291 q 212 137 173 188 q 330 86 251 86 q 517 195 442 86 q 591 473 591 305 q 551 621 591 571 q 435 672 512 672 q 322 639 371 672 q 233 539 272 606 q 189 424 204 489 q 173 291 173 360 m 471 1110 l 562 1110 l 667 855 l 582 855 l 505 1016 l 361 855 l 277 855 l 471 1110 "},"¼":{"x_min":82.75,"x_max":1197.640625,"ha":1211,"o":"m 1077 481 l 837 200 l 1027 200 l 1077 481 m 1077 566 l 1178 566 l 1114 200 l 1197 200 l 1184 126 l 1101 126 l 1078 0 l 992 0 l 1015 126 l 761 126 l 776 215 l 1077 566 m 94 527 l 219 527 l 292 942 l 152 914 l 166 992 l 306 1019 l 394 1019 l 308 527 l 434 527 l 419 453 l 82 453 l 94 527 m 926 1030 l 1035 1030 l 283 -19 l 173 -19 l 926 1030 "},"#":{"x_min":87.484375,"x_max":966.46875,"ha":1047,"o":"m 547 996 l 484 715 l 661 715 l 726 996 l 824 996 l 760 715 l 966 715 l 942 611 l 737 611 l 687 384 l 894 384 l 872 280 l 663 280 l 600 0 l 502 0 l 564 280 l 386 280 l 323 0 l 225 0 l 288 280 l 87 280 l 109 384 l 311 384 l 362 611 l 157 611 l 181 715 l 386 715 l 448 996 l 547 996 m 638 611 l 461 611 l 410 384 l 588 384 l 638 611 "},"Ê":{"x_min":33.90625,"x_max":787.421875,"ha":789,"o":"m 210 1012 l 787 1012 l 767 897 l 314 897 l 261 597 l 696 597 l 676 482 l 241 482 l 177 115 l 641 115 l 621 0 l 33 0 l 210 1012 m 463 1289 l 595 1289 l 691 1108 l 609 1108 l 523 1229 l 395 1108 l 304 1108 l 463 1289 "},")":{"x_min":-77.640625,"x_max":359.8125,"ha":488,"o":"m -77 -183 q 163 243 84 41 q 243 632 243 444 q 220 844 243 739 q 150 1053 197 950 l 248 1053 q 332 827 304 936 q 359 612 359 718 q 275 211 359 410 q 22 -183 190 12 l -77 -183 "},"Ꙕ":{"x_min":56.96875,"x_max":1308.96875,"ha":1349,"o":"m 757 808 q 564 919 698 919 q 331 808 430 919 q 200 505 233 697 q 187 377 187 436 q 225 202 187 274 q 418 91 284 91 q 651 202 552 91 q 784 505 750 314 q 795 632 795 574 q 757 808 795 737 m 922 563 l 1108 563 l 1186 1012 l 1308 1012 l 1132 0 l 1009 0 l 1087 448 l 902 448 q 725 119 859 258 q 399 -19 591 -19 q 118 123 207 -19 q 56 362 56 220 q 70 505 56 428 q 252 888 112 745 q 583 1030 392 1030 q 861 892 775 1030 q 927 645 927 784 q 922 563 927 605 "},"Å":{"x_min":-66.796875,"x_max":768.78125,"ha":855,"o":"m 622 1102 q 595 1175 622 1145 q 529 1205 568 1205 q 463 1176 490 1205 q 437 1102 437 1146 q 463 1030 437 1060 q 529 1000 490 1000 q 595 1030 568 1000 q 622 1102 622 1060 m 429 954 q 379 1017 397 979 q 362 1102 362 1056 q 411 1234 362 1180 q 529 1289 460 1289 q 648 1234 599 1289 q 697 1102 697 1180 q 675 1007 697 1049 q 610 942 652 966 l 768 0 l 639 0 l 601 259 l 192 259 l 63 0 l -66 0 l 429 954 m 504 877 l 248 373 l 582 373 l 504 877 "},"ø":{"x_min":-17.96875,"x_max":777.59375,"ha":764,"o":"m 549 625 q 498 660 527 649 q 435 672 470 672 q 247 563 321 672 q 174 284 174 454 q 175 239 174 252 q 180 213 176 225 l 549 625 m 93 116 q 66 192 75 149 q 57 286 57 235 q 81 455 57 368 q 143 600 105 541 q 277 734 203 691 q 447 777 351 777 q 545 760 500 777 q 625 708 590 742 l 724 819 l 777 760 l 672 644 q 698 564 689 607 q 707 476 707 522 q 682 304 707 392 q 620 158 658 216 q 487 23 561 67 q 317 -19 413 -19 q 219 -1 264 -19 q 139 51 173 16 l 34 -63 l -17 -6 l 93 116 m 586 548 l 214 134 q 266 98 238 109 q 329 86 294 86 q 518 197 445 86 q 591 486 591 307 q 589 525 591 512 q 586 548 588 538 "},"â":{"x_min":51.546875,"x_max":683.65625,"ha":766,"o":"m 671 433 l 595 0 l 482 0 l 503 115 q 390 13 454 47 q 250 -19 327 -19 q 107 39 162 -19 q 51 191 51 99 q 146 402 51 324 q 410 479 242 479 l 566 479 l 572 512 q 574 524 573 518 q 575 544 575 531 q 530 638 575 604 q 406 672 486 672 q 293 656 351 672 q 174 609 236 640 l 194 725 q 319 764 258 751 q 436 777 379 777 q 620 719 557 777 q 683 550 683 661 q 680 497 683 527 q 671 433 677 467 m 550 381 l 437 381 q 233 340 299 381 q 167 213 167 299 q 201 120 167 153 q 295 86 234 86 q 454 159 386 86 q 545 354 522 231 l 550 381 m 461 1110 l 552 1110 l 657 855 l 572 855 l 495 1016 l 351 855 l 267 855 l 461 1110 "},"}":{"x_min":8.8125,"x_max":613.796875,"ha":795,"o":"m 8 -226 l 26 -128 l 73 -128 q 185 -102 156 -128 q 232 26 214 -75 l 263 197 q 320 355 283 305 q 424 417 356 404 q 356 465 380 430 q 331 551 331 499 q 333 590 331 568 q 339 637 335 611 l 368 802 q 373 842 372 825 q 375 876 375 859 q 348 939 375 919 q 263 958 322 958 l 216 958 l 232 1055 l 278 1055 q 441 1018 392 1055 q 491 898 491 982 q 489 854 491 877 q 482 805 486 831 l 454 645 q 453 637 454 643 q 447 573 447 604 q 477 490 447 515 q 576 465 507 465 l 613 465 l 596 365 l 558 365 q 432 328 470 365 q 375 189 393 290 l 343 23 q 306 -109 327 -61 q 252 -183 284 -157 q 181 -216 223 -206 q 58 -226 139 -226 l 8 -226 "},"Ä":{"x_min":-66.796875,"x_max":768.78125,"ha":855,"o":"m 460 1012 l 599 1012 l 768 0 l 639 0 l 601 259 l 192 259 l 63 0 l -66 0 l 460 1012 m 504 877 l 248 373 l 582 373 l 504 877 m 380 1268 l 504 1268 l 479 1130 l 356 1130 l 380 1268 m 619 1268 l 742 1268 l 719 1130 l 595 1130 l 619 1268 "},"Ꙥ":{"x_min":-37.625,"x_max":1348.65625,"ha":1267,"o":"m -37 0 l -17 115 q 178 258 123 147 q 332 840 261 427 l 363 1012 l 1348 1012 l 1328 897 l 884 897 l 728 0 l 604 0 l 761 897 l 465 897 l 443 772 q 284 212 375 387 q -37 0 192 37 "},"¸":{"x_min":61.046875,"x_max":333.6875,"ha":625,"o":"m 290 0 q 323 -64 313 -34 q 333 -122 333 -93 q 288 -228 333 -189 q 166 -267 244 -267 q 113 -263 139 -267 q 61 -251 87 -259 l 75 -162 q 123 -179 99 -173 q 172 -184 147 -184 q 231 -163 209 -184 q 252 -107 252 -143 q 245 -63 252 -87 q 218 0 237 -38 l 290 0 "},"a":{"x_min":51.546875,"x_max":683.65625,"ha":766,"o":"m 671 433 l 595 0 l 482 0 l 503 115 q 390 13 454 47 q 250 -19 327 -19 q 107 39 162 -19 q 51 191 51 99 q 146 402 51 324 q 410 479 242 479 l 566 479 l 572 512 q 574 524 573 518 q 575 544 575 531 q 530 638 575 604 q 406 672 486 672 q 293 656 351 672 q 174 609 236 640 l 194 725 q 319 764 258 751 q 436 777 379 777 q 620 719 557 777 q 683 550 683 661 q 680 497 683 527 q 671 433 677 467 m 550 381 l 437 381 q 233 340 299 381 q 167 213 167 299 q 201 120 167 153 q 295 86 234 86 q 454 159 386 86 q 545 354 522 231 l 550 381 "},"=":{"x_min":132.25,"x_max":914.921875,"ha":1047,"o":"m 132 630 l 914 630 l 914 516 l 132 516 l 132 630 m 132 354 l 914 354 l 914 238 l 132 238 l 132 354 "},"N":{"x_min":33.90625,"x_max":901.359375,"ha":935,"o":"m 210 1012 l 377 1012 l 628 144 l 781 1012 l 901 1012 l 723 0 l 557 0 l 306 873 l 153 0 l 33 0 l 210 1012 "},"ꙕ":{"x_min":57.65625,"x_max":1001.0625,"ha":1052,"o":"m 433 672 q 277 593 343 672 q 187 379 210 514 q 178 284 178 327 q 202 164 178 213 q 330 86 241 86 q 487 164 421 86 q 577 379 553 242 q 586 474 586 430 q 562 594 586 545 q 433 672 523 672 m 705 456 q 835 456 705 456 l 888 759 l 1001 759 l 868 0 l 755 0 l 817 353 l 691 353 q 557 82 655 185 q 312 -19 459 -19 q 101 86 166 -19 q 57 263 57 157 q 68 379 57 317 q 203 672 101 566 q 451 777 305 777 q 657 681 598 777 q 707 495 707 600 q 705 456 707 476 "},"ú":{"x_min":71.21875,"x_max":735.875,"ha":792,"o":"m 83 301 l 163 759 l 276 759 l 196 305 q 187 248 190 272 q 185 209 185 225 q 216 120 185 151 q 306 88 248 88 q 462 156 396 88 q 548 339 528 224 l 623 759 l 735 759 l 603 0 l 491 0 l 514 119 q 400 16 466 52 q 261 -19 335 -19 q 121 34 171 -19 q 71 187 71 89 q 74 238 71 207 q 83 301 77 268 m 595 1110 l 716 1110 l 472 855 l 378 855 l 595 1110 "},"2":{"x_min":4.75,"x_max":717.5625,"ha":795,"o":"m 576 489 l 182 113 l 617 113 l 596 0 l 4 0 l 25 115 l 436 507 q 553 646 518 586 q 588 769 588 706 q 546 876 588 835 q 437 918 504 918 q 308 895 379 918 q 157 828 238 872 l 180 963 q 324 1013 255 996 q 452 1030 393 1030 q 644 960 571 1030 q 717 775 717 889 q 682 627 717 697 q 576 489 648 557 "},"ü":{"x_min":71.21875,"x_max":735.875,"ha":792,"o":"m 83 301 l 163 759 l 276 759 l 196 305 q 187 248 190 272 q 185 209 185 225 q 216 120 185 151 q 306 88 248 88 q 462 156 396 88 q 548 339 528 224 l 623 759 l 735 759 l 603 0 l 491 0 l 514 119 q 400 16 466 52 q 261 -19 335 -19 q 121 34 171 -19 q 71 187 71 89 q 74 238 71 207 q 83 301 77 268 m 317 1052 l 443 1052 l 418 915 l 293 915 l 317 1052 m 556 1052 l 680 1052 l 656 915 l 532 915 l 556 1052 "},"¯":{"x_min":232.625,"x_max":615.140625,"ha":625,"o":"m 250 1034 l 615 1034 l 597 934 l 232 934 l 250 1034 "},"Z":{"x_min":-27.453125,"x_max":878.65625,"ha":856,"o":"m 163 1012 l 878 1012 l 861 908 l 154 115 l 735 115 l 716 0 l -27 0 l -9 104 l 696 897 l 143 897 l 163 1012 "},"u":{"x_min":71.21875,"x_max":735.875,"ha":792,"o":"m 83 301 l 163 759 l 276 759 l 196 305 q 187 248 190 272 q 185 209 185 225 q 216 120 185 151 q 306 88 248 88 q 462 156 396 88 q 548 339 528 224 l 623 759 l 735 759 l 603 0 l 491 0 l 514 119 q 400 16 466 52 q 261 -19 335 -19 q 121 34 171 -19 q 71 187 71 89 q 74 238 71 207 q 83 301 77 268 "},"Ó":{"x_min":50.1875,"x_max":933.90625,"ha":983,"o":"m 570 919 q 391 865 468 919 q 256 698 314 810 q 200 547 219 627 q 181 385 181 467 q 241 168 181 244 q 413 91 302 91 q 592 146 514 91 q 726 311 670 202 q 783 464 763 384 q 803 625 803 545 q 741 842 803 765 q 570 919 680 919 m 410 -19 q 146 90 242 -19 q 50 393 50 201 q 87 617 50 503 q 191 822 124 732 q 363 979 268 927 q 573 1030 459 1030 q 837 921 741 1030 q 933 622 933 811 q 897 393 933 505 q 792 189 860 280 q 619 31 714 83 q 410 -19 525 -19 m 680 1287 l 806 1287 l 619 1108 l 522 1108 l 680 1287 "},"k":{"x_min":44.078125,"x_max":765.03125,"ha":724,"o":"m 229 1055 l 341 1055 l 233 440 l 619 759 l 765 759 l 335 396 l 649 0 l 512 0 l 221 370 l 155 0 l 44 0 l 229 1055 "},"₯":{"x_min":58.328125,"x_max":1472.421875,"ha":1590,"o":"m 954 -308 l 847 -280 l 1031 207 q 1120 381 1070 309 q 1212 473 1160 436 q 1323 510 1264 510 q 1403 491 1369 510 q 1454 436 1437 471 q 1472 346 1472 399 q 1466 278 1472 314 q 1410 129 1451 197 q 1312 22 1368 59 q 1196 -20 1249 -20 q 1128 1 1162 -20 q 1089 50 1102 16 l 954 -308 m 1300 392 q 1205 320 1247 392 q 1178 265 1195 303 q 1161 200 1168 242 q 1158 172 1158 186 q 1163 137 1158 153 q 1215 101 1177 101 q 1257 113 1237 101 q 1296 147 1278 125 q 1330 202 1311 165 q 1353 274 1345 236 q 1357 320 1357 300 q 1351 363 1357 345 q 1332 385 1345 377 q 1300 392 1321 392 m 319 268 q 343 329 331 295 l 554 902 q 503 882 524 895 q 460 845 478 867 q 426 786 443 825 l 326 822 q 390 920 352 878 q 473 987 428 963 q 660 1030 553 1030 q 868 989 784 1030 q 998 873 953 947 q 1045 748 1038 807 q 1052 655 1052 690 q 1043 553 1052 605 q 996 381 1030 476 q 910 208 965 293 q 844 122 880 161 q 765 51 808 83 q 668 0 716 16 q 560 -19 606 -19 q 495 -13 522 -19 q 438 8 465 -6 q 393 36 411 23 q 351 69 359 62 l 343 75 q 313 37 328 52 q 198 -19 255 -19 q 88 24 127 -19 q 58 105 58 59 q 61 134 58 119 q 120 242 71 197 q 232 287 168 287 q 319 268 277 287 m 680 907 l 470 318 q 419 190 440 233 l 440 172 q 513 119 484 134 q 577 102 545 102 q 698 147 643 102 q 801 267 753 193 q 869 410 838 323 q 908 550 897 482 q 916 632 916 592 q 913 680 916 657 q 880 792 906 746 q 680 907 817 897 m 259 138 q 210 161 239 161 q 177 151 187 161 q 166 132 168 142 q 165 126 165 128 q 174 105 165 113 q 206 96 187 96 q 259 138 234 96 "},"Ù":{"x_min":72.5625,"x_max":891.1875,"ha":915,"o":"m 193 1012 l 317 1012 l 210 397 q 200 329 203 356 q 198 282 198 302 q 244 140 198 188 q 382 91 291 91 q 566 163 500 91 q 659 397 632 235 l 767 1012 l 891 1012 l 781 380 q 644 77 745 175 q 368 -19 543 -19 q 152 56 231 -19 q 72 263 72 132 q 75 317 72 287 q 84 380 78 346 l 193 1012 m 547 1287 l 637 1108 l 552 1108 l 436 1287 l 547 1287 "},"€":{"x_min":-24.0625,"x_max":758.609375,"ha":795,"o":"m 758 934 l 738 790 q 636 890 687 858 q 527 922 585 922 q 373 856 439 922 q 264 659 307 790 l 582 659 l 549 576 l 241 576 q 229 507 234 542 q 222 436 224 473 l 493 436 l 460 352 l 220 352 q 274 154 225 220 q 414 88 322 88 q 539 118 481 88 q 660 212 598 147 l 637 50 q 519 -2 579 15 q 399 -19 458 -19 q 183 79 263 -19 q 96 352 102 178 l -24 352 l 9 436 l 98 436 q 105 508 100 473 q 117 576 110 543 l 11 576 l 45 659 l 138 659 q 295 939 197 847 q 532 1030 393 1030 q 651 1006 595 1030 q 758 934 707 982 "},"₦":{"x_min":48.15625,"x_max":887.109375,"ha":935,"o":"m 381 639 l 357 779 l 333 639 l 381 639 m 412 456 l 395 556 l 318 556 l 301 456 l 412 456 m 278 1012 l 444 1012 l 508 639 l 648 639 l 714 1012 l 833 1012 l 768 639 l 887 639 l 872 556 l 753 556 l 736 456 l 855 456 l 840 373 l 721 373 l 656 0 l 490 0 l 426 373 l 286 373 l 221 0 l 101 0 l 166 373 l 48 373 l 62 456 l 181 456 l 198 556 l 80 556 l 94 639 l 213 639 l 278 1012 m 522 556 l 539 456 l 616 456 l 634 556 l 522 556 m 554 373 l 577 233 l 602 373 l 554 373 "},"¢":{"x_min":92.921875,"x_max":704,"ha":795,"o":"m 462 668 q 280 543 354 652 q 207 288 207 434 q 244 148 207 198 q 360 84 282 98 l 462 668 m 542 776 q 626 760 587 771 q 704 730 666 749 l 682 607 q 615 647 653 632 q 523 670 577 662 l 421 86 q 506 104 461 89 q 602 148 552 120 l 581 25 q 496 -5 541 6 q 405 -19 452 -16 l 368 -212 l 307 -212 l 343 -19 q 158 64 223 -10 q 92 271 92 140 q 200 620 92 479 q 480 776 308 760 l 515 969 l 576 969 l 542 776 "},"ß":{"x_min":58.328125,"x_max":737.234375,"ha":787,"o":"m 193 771 q 297 980 217 904 q 498 1055 378 1055 q 671 992 604 1055 q 737 829 737 929 q 735 791 737 812 q 729 746 733 771 q 570 694 631 740 q 509 583 509 649 q 521 531 509 556 q 564 482 534 507 l 594 455 q 691 347 666 392 q 716 248 716 303 q 631 56 716 132 q 413 -19 546 -19 q 324 -11 367 -19 q 243 13 282 -2 l 262 124 q 344 94 302 105 q 430 84 387 84 q 553 123 505 84 q 600 223 600 162 q 585 280 600 254 q 523 352 571 307 l 492 381 q 413 475 433 437 q 392 558 392 512 q 457 712 392 643 q 627 805 522 780 q 629 817 628 811 q 630 837 630 824 q 595 921 630 890 q 499 951 560 951 q 369 905 418 951 q 305 768 320 859 l 171 0 l 58 0 l 193 771 "},"é":{"x_min":57.65625,"x_max":720.453125,"ha":769,"o":"m 600 447 q 603 470 602 458 q 604 493 604 481 q 561 623 604 575 q 442 672 517 672 q 294 613 358 672 q 198 446 230 554 l 600 447 m 698 349 l 176 349 q 171 309 172 324 q 170 283 170 294 q 222 137 170 189 q 369 86 274 86 q 508 104 442 86 q 630 158 573 122 l 608 34 q 483 -6 548 7 q 352 -19 419 -19 q 133 55 210 -19 q 57 270 57 131 q 95 491 57 389 q 207 673 133 593 q 320 750 255 723 q 460 777 386 777 q 644 700 576 777 q 713 493 713 623 q 709 426 713 461 q 698 349 706 390 m 599 1110 l 720 1110 l 476 855 l 382 855 l 599 1110 "},"s":{"x_min":14.25,"x_max":625.328125,"ha":651,"o":"m 625 737 l 603 619 q 509 659 558 646 q 407 673 460 673 q 268 639 319 673 q 217 548 217 606 q 335 445 217 481 q 349 441 344 442 l 385 429 q 535 356 497 394 q 572 252 572 318 q 486 56 572 132 q 259 -19 400 -19 q 145 -8 205 -19 q 14 27 86 3 l 35 156 q 157 103 97 121 q 271 84 217 84 q 406 124 354 84 q 457 223 457 163 q 322 328 457 288 l 310 332 l 271 343 q 146 409 186 368 q 107 514 107 450 q 189 706 107 635 q 412 777 271 777 q 520 767 467 777 q 625 737 573 757 "},"B":{"x_min":33.90625,"x_max":781.3125,"ha":857,"o":"m 210 1012 l 526 1012 q 717 959 654 1012 q 781 800 781 906 q 726 631 781 702 q 583 545 672 560 q 697 473 659 526 q 735 330 735 419 q 633 88 735 177 q 355 0 531 0 l 33 0 l 210 1012 m 241 483 l 176 112 l 375 112 q 546 169 486 112 q 607 330 607 226 q 567 446 607 410 q 438 483 527 483 l 241 483 m 314 900 l 259 594 l 443 594 q 597 642 541 594 q 652 773 652 689 q 615 869 652 839 q 496 900 577 900 l 314 900 "},"?":{"x_min":153.953125,"x_max":638.890625,"ha":663,"o":"m 311 172 l 281 0 l 157 0 l 187 172 l 311 172 m 176 954 q 300 1011 238 992 q 427 1030 362 1030 q 582 980 525 1030 q 638 841 638 929 q 606 710 638 771 q 499 583 573 649 l 436 526 q 368 449 385 481 q 339 355 351 417 l 324 271 l 208 271 l 227 376 q 262 484 238 440 q 354 591 286 529 l 418 651 q 490 735 470 699 q 511 809 511 771 q 478 890 511 861 q 386 919 444 919 q 277 895 337 919 q 153 826 217 871 l 176 954 "},"H":{"x_min":33.90625,"x_max":906.109375,"ha":940,"o":"m 210 1012 l 335 1012 l 262 597 l 710 597 l 782 1012 l 906 1012 l 729 0 l 604 0 l 689 482 l 242 482 l 157 0 l 33 0 l 210 1012 "},"î":{"x_min":44.078125,"x_max":439.15625,"ha":347,"o":"m 177 759 l 290 759 l 155 0 l 44 0 l 177 759 m 243 1110 l 334 1110 l 439 855 l 354 855 l 277 1016 l 133 855 l 49 855 l 243 1110 "},"c":{"x_min":57.65625,"x_max":670.078125,"ha":687,"o":"m 670 730 l 647 607 q 561 655 607 639 q 467 672 516 672 q 365 651 413 672 q 283 591 316 630 q 202 453 231 532 q 173 288 173 373 q 219 136 173 186 q 360 86 265 86 q 458 101 406 86 q 567 148 510 117 l 546 25 q 445 -8 497 2 q 339 -19 394 -19 q 130 55 204 -19 q 57 271 57 131 q 95 489 57 389 q 208 668 133 588 q 328 750 259 722 q 479 777 398 777 q 574 766 527 777 q 670 730 621 754 "},"¶":{"x_min":97.671875,"x_max":716.875,"ha":795,"o":"m 468 1012 l 716 1012 l 516 -133 l 431 -133 l 617 929 l 501 929 l 314 -133 l 229 -133 l 328 440 q 159 507 220 444 q 97 678 97 571 q 202 917 97 822 q 468 1012 307 1012 "},"¥":{"x_min":56.296875,"x_max":841,"ha":795,"o":"m 685 308 l 434 308 l 380 0 l 256 0 l 309 308 l 56 308 l 70 392 l 324 392 l 331 426 l 298 531 l 94 531 l 109 615 l 271 615 l 147 1012 l 263 1012 l 410 537 l 722 1012 l 841 1012 l 578 615 l 738 615 l 723 531 l 523 531 l 454 426 l 448 392 l 698 392 l 685 308 "},"(":{"x_min":96.3125,"x_max":533.765625,"ha":488,"o":"m 533 1053 q 291 627 371 829 q 212 238 212 425 q 235 26 212 131 q 305 -183 259 -79 l 207 -183 q 123 43 151 -66 q 96 259 96 153 q 180 658 96 461 q 434 1053 264 856 l 533 1053 "},"U":{"x_min":72.5625,"x_max":891.1875,"ha":915,"o":"m 193 1012 l 317 1012 l 210 397 q 200 329 203 356 q 198 282 198 302 q 244 140 198 188 q 382 91 291 91 q 566 163 500 91 q 659 397 632 235 l 767 1012 l 891 1012 l 781 380 q 644 77 745 175 q 368 -19 543 -19 q 152 56 231 -19 q 72 263 72 132 q 75 317 72 287 q 84 380 78 346 l 193 1012 "},"₠":{"x_min":62.171875,"x_max":1080.40625,"ha":1096,"o":"m 567 298 q 455 243 512 261 q 337 225 397 225 q 110 330 181 225 q 72 619 40 436 q 212 907 104 802 q 474 1013 320 1013 q 587 995 536 1013 q 679 940 638 977 l 660 832 q 574 904 622 881 q 465 928 525 928 q 272 849 348 928 q 169 619 196 769 q 191 389 143 468 q 357 309 240 309 q 474 333 417 309 q 585 405 531 357 l 647 759 l 1080 759 l 1064 672 l 725 672 l 685 448 l 1011 448 l 996 361 l 670 361 l 622 86 l 970 86 l 954 0 l 514 0 l 567 298 "},"Ñ":{"x_min":33.90625,"x_max":901.359375,"ha":935,"o":"m 210 1012 l 377 1012 l 628 144 l 781 1012 l 901 1012 l 723 0 l 557 0 l 306 873 l 153 0 l 33 0 l 210 1012 m 569 1159 l 548 1176 l 547 1177 q 498 1199 521 1199 q 460 1181 477 1199 q 433 1130 444 1164 l 357 1130 q 416 1241 378 1204 q 505 1279 453 1279 q 545 1271 526 1279 q 586 1247 564 1264 l 606 1229 q 628 1215 616 1220 q 652 1211 639 1211 q 693 1229 675 1211 q 717 1279 710 1247 l 793 1279 q 735 1167 773 1205 q 641 1130 696 1130 q 605 1137 622 1130 q 569 1159 588 1144 "},"F":{"x_min":33.90625,"x_max":733.84375,"ha":719,"o":"m 210 1012 l 733 1012 l 713 897 l 314 897 l 261 598 l 622 598 l 602 483 l 241 483 l 155 0 l 33 0 l 210 1012 "},"­":{"x_min":56.296875,"x_max":405.578125,"ha":451,"o":"m 75 436 l 405 436 l 386 324 l 56 324 l 75 436 "},":":{"x_min":64.4375,"x_max":320.125,"ha":421,"o":"m 191 718 l 320 718 l 290 545 l 161 545 l 191 718 m 94 172 l 223 172 l 193 0 l 64 0 l 94 172 "},"Ꙍ":{"x_min":44.765625,"x_max":1401.203125,"ha":1474,"o":"m 1386 345 q 1279 87 1357 181 q 1047 -19 1189 -19 q 931 26 991 -19 q 829 113 880 69 q 689 159 763 159 q 532 113 615 159 l 398 26 q 267 -19 323 -19 q 72 86 124 -19 q 44 229 44 144 q 55 345 44 282 q 147 632 79 479 q 303 895 218 792 l 455 895 q 282 658 366 823 q 181 381 203 505 q 174 302 174 337 q 299 160 174 160 q 446 197 383 160 q 551 266 499 231 q 715 303 619 303 q 864 266 809 303 q 943 197 904 231 q 1077 160 993 160 q 1273 381 1234 160 q 1283 501 1283 438 q 1269 658 1283 575 q 1178 895 1242 823 l 1331 895 q 1395 632 1381 792 q 1401 520 1401 575 q 1386 345 1401 429 "},"Û":{"x_min":72.5625,"x_max":891.1875,"ha":915,"o":"m 193 1012 l 317 1012 l 210 397 q 200 329 203 356 q 198 282 198 302 q 244 140 198 188 q 382 91 291 91 q 566 163 500 91 q 659 397 632 235 l 767 1012 l 891 1012 l 781 380 q 644 77 745 175 q 368 -19 543 -19 q 152 56 231 -19 q 72 263 72 132 q 75 317 72 287 q 84 380 78 346 l 193 1012 m 518 1289 l 650 1289 l 746 1108 l 664 1108 l 578 1229 l 450 1108 l 359 1108 l 518 1289 "},"*":{"x_min":37.296875,"x_max":588.015625,"ha":625,"o":"m 588 845 l 368 714 l 588 581 l 552 515 l 347 653 l 347 397 l 278 397 l 278 653 l 72 515 l 37 581 l 256 714 l 37 845 l 72 912 l 278 775 l 278 1030 l 347 1030 l 347 775 l 552 912 l 588 845 "},"₫":{"x_min":57.65625,"x_max":876.265625,"ha":795,"o":"m 522 113 q 415 14 477 48 q 278 -19 354 -19 q 117 57 176 -19 q 57 270 57 135 q 93 485 57 383 q 198 668 129 587 q 299 749 242 721 q 418 777 356 777 q 535 742 484 777 q 613 641 585 707 l 653 870 l 454 870 l 471 954 l 670 954 l 686 1055 l 798 1055 l 782 954 l 876 954 l 859 870 l 766 870 l 613 0 l 501 0 l 522 113 m 173 293 q 213 139 173 194 q 324 84 253 84 q 421 112 377 84 q 501 196 466 141 q 557 327 537 252 q 578 474 578 402 q 538 621 578 569 q 428 674 498 674 q 329 647 375 674 q 251 567 283 619 q 194 436 216 510 q 173 293 173 361 m 114 -118 l 479 -118 l 461 -218 l 96 -218 l 114 -118 "},"°":{"x_min":119.375,"x_max":505.953125,"ha":625,"o":"m 312 943 q 230 905 263 943 q 196 813 196 868 q 230 723 196 760 q 312 686 263 686 q 395 723 361 686 q 428 813 428 760 q 394 905 428 867 q 312 943 360 943 m 312 1030 q 387 1014 351 1030 q 449 966 423 997 q 492 897 478 935 q 505 813 505 858 q 449 662 505 724 q 311 600 393 600 q 174 661 229 600 q 119 813 119 722 q 175 967 119 904 q 312 1030 231 1030 "},"V":{"x_min":97.671875,"x_max":927.8125,"ha":855,"o":"m 257 0 l 97 1012 l 218 1012 l 351 141 l 793 1012 l 927 1012 l 400 0 l 257 0 "},"å":{"x_min":51.546875,"x_max":683.65625,"ha":766,"o":"m 671 433 l 595 0 l 482 0 l 503 115 q 390 13 454 47 q 250 -19 327 -19 q 107 39 162 -19 q 51 191 51 99 q 146 402 51 324 q 410 479 242 479 l 566 479 l 572 512 q 574 524 573 518 q 575 544 575 531 q 530 638 575 604 q 406 672 486 672 q 293 656 351 672 q 174 609 236 640 l 194 725 q 319 764 258 751 q 436 777 379 777 q 620 719 557 777 q 683 550 683 661 q 680 497 683 527 q 671 433 677 467 m 550 381 l 437 381 q 233 340 299 381 q 167 213 167 299 q 201 120 167 153 q 295 86 234 86 q 454 159 386 86 q 545 354 522 231 l 550 381 m 657 1033 q 608 901 657 955 q 489 847 560 847 q 370 901 419 847 q 322 1033 322 955 q 370 1165 322 1112 q 489 1219 419 1219 q 608 1165 560 1219 q 657 1033 657 1112 m 582 1033 q 555 1106 582 1077 q 489 1136 528 1136 q 423 1107 448 1136 q 397 1033 397 1078 q 423 959 397 988 q 489 930 448 930 q 556 959 530 930 q 582 1033 582 988 "}," ":{"x_min":0,"x_max":0,"ha":397},"0":{"x_min":62.390625,"x_max":732.484375,"ha":795,"o":"m 477 1030 q 666 939 600 1030 q 732 676 732 847 q 701 417 732 545 q 615 187 670 288 q 482 32 558 85 q 312 -19 405 -19 q 127 72 192 -19 q 62 335 62 164 q 93 593 62 463 q 181 823 124 722 q 312 978 237 925 q 477 1030 387 1030 m 470 922 q 381 894 423 922 q 306 813 339 867 q 217 590 250 724 q 183 315 183 456 q 219 146 183 203 q 324 88 255 88 q 415 116 373 88 q 490 197 456 143 q 578 420 545 286 q 611 695 611 554 q 575 865 611 807 q 470 922 539 922 "},"¾":{"x_min":20.34375,"x_max":1197.640625,"ha":1211,"o":"m 1077 481 l 837 200 l 1027 200 l 1077 481 m 1077 566 l 1178 566 l 1114 200 l 1197 200 l 1184 126 l 1101 126 l 1078 0 l 992 0 l 1015 126 l 761 126 l 776 215 l 1077 566 m 131 1007 q 220 1025 181 1019 q 292 1030 259 1030 q 414 995 368 1030 q 460 901 460 959 q 425 810 460 849 q 331 759 390 771 q 401 716 377 748 q 425 636 425 685 q 358 496 425 550 q 177 442 290 442 q 98 450 138 442 q 20 470 59 457 l 34 552 q 101 525 67 534 q 173 516 135 516 q 291 548 248 516 q 333 634 333 579 q 304 698 333 676 q 215 719 274 719 l 162 719 l 176 792 l 232 792 q 329 817 295 792 q 364 885 364 841 q 339 939 364 921 q 265 956 314 956 q 192 949 230 956 q 118 929 155 942 l 131 1007 m 926 1030 l 1035 1030 l 283 -19 l 173 -19 l 926 1030 "},"@":{"x_min":72.5625,"x_max":1187.5625,"ha":1250,"o":"m 765 161 q 673 85 722 111 q 571 59 624 59 q 422 126 481 59 q 363 297 363 193 q 454 557 363 446 q 666 669 545 669 q 767 642 722 669 q 834 567 811 615 l 851 655 l 938 655 l 851 155 q 1029 277 959 174 q 1098 522 1098 380 q 998 780 1098 680 q 737 880 897 880 q 527 837 628 880 q 348 718 425 795 q 210 507 259 627 q 161 263 161 388 q 267 -28 161 86 q 539 -144 374 -144 q 694 -114 617 -144 q 853 -22 770 -85 l 904 -99 q 726 -204 821 -168 q 529 -240 630 -240 q 202 -94 333 -240 q 72 271 72 50 q 136 567 72 424 q 314 813 200 710 q 510 933 400 891 q 735 976 619 976 q 1059 848 930 976 q 1187 527 1187 720 q 1063 194 1187 327 q 746 56 939 61 l 765 161 m 668 573 q 521 498 581 573 q 461 316 461 422 q 496 198 461 240 q 592 155 531 155 q 737 232 679 155 q 796 422 796 309 q 761 532 796 491 q 668 573 726 573 "},"ö":{"x_min":57.65625,"x_max":707.390625,"ha":764,"o":"m 317 -19 q 127 62 197 -19 q 57 287 57 145 q 81 456 57 370 q 143 600 105 541 q 279 734 204 691 q 447 777 353 777 q 635 697 564 777 q 707 486 707 616 q 683 306 707 396 q 621 158 659 217 q 486 23 561 67 q 317 -19 412 -19 m 173 291 q 212 137 173 188 q 330 86 251 86 q 517 195 442 86 q 591 473 591 305 q 551 621 591 571 q 435 672 512 672 q 322 639 371 672 q 233 539 272 606 q 189 424 204 489 q 173 291 173 360 m 324 1052 l 450 1052 l 425 915 l 300 915 l 324 1052 m 563 1052 l 687 1052 l 663 915 l 539 915 l 563 1052 "},"i":{"x_min":44.078125,"x_max":341.140625,"ha":347,"o":"m 229 1055 l 341 1055 l 314 897 l 201 897 l 229 1055 m 177 759 l 290 759 l 155 0 l 44 0 l 177 759 "},"₳":{"x_min":-79.359375,"x_max":790.125,"ha":795,"o":"m 42 576 l 57 659 l 242 659 l 415 1012 l 555 1012 l 604 659 l 790 659 l 775 576 l 615 576 l 634 436 l 750 436 l 735 352 l 646 352 l 695 0 l 567 0 l 524 352 l 215 352 l 50 0 l -79 0 l 92 352 l 3 352 l 18 436 l 133 436 l 202 576 l 42 576 m 320 576 l 255 436 l 514 436 l 497 576 l 320 576 m 359 659 l 487 659 l 461 877 l 359 659 "},"Õ":{"x_min":50.1875,"x_max":933.90625,"ha":983,"o":"m 570 919 q 391 865 468 919 q 256 698 314 810 q 200 547 219 627 q 181 385 181 467 q 241 168 181 244 q 413 91 302 91 q 592 146 514 91 q 726 311 670 202 q 783 464 763 384 q 803 625 803 545 q 741 842 803 765 q 570 919 680 919 m 410 -19 q 146 90 242 -19 q 50 393 50 201 q 87 617 50 503 q 191 822 124 732 q 363 979 268 927 q 573 1030 459 1030 q 837 921 741 1030 q 933 622 933 811 q 897 393 933 505 q 792 189 860 280 q 619 31 714 83 q 410 -19 525 -19 m 622 1159 l 601 1176 l 600 1177 q 551 1199 574 1199 q 513 1181 530 1199 q 486 1130 497 1164 l 410 1130 q 469 1241 431 1204 q 558 1279 506 1279 q 598 1271 579 1279 q 639 1247 617 1264 l 659 1229 q 681 1215 669 1220 q 705 1211 692 1211 q 746 1229 728 1211 q 770 1279 763 1247 l 846 1279 q 788 1167 826 1205 q 694 1130 749 1130 q 658 1137 675 1130 q 622 1159 641 1144 "},"þ":{"x_min":-3.71875,"x_max":735.546875,"ha":794,"o":"m 619 467 q 580 620 619 567 q 468 673 541 673 q 372 644 418 673 q 291 562 327 616 q 236 432 257 508 q 216 282 216 356 q 255 135 216 187 q 365 84 294 84 q 464 112 418 84 q 542 193 509 140 q 598 324 576 248 q 619 467 619 399 m 271 644 q 378 744 317 710 q 515 777 439 777 q 677 701 619 777 q 735 487 735 625 q 699 272 735 375 q 595 90 663 170 q 494 8 551 36 q 374 -19 437 -19 q 252 13 302 -19 q 178 113 203 47 l 108 -288 l -3 -288 l 228 1055 l 340 1055 l 271 644 "},"]":{"x_min":-47.796875,"x_max":426.953125,"ha":488,"o":"m 426 1055 l 210 -183 l -47 -183 l -31 -86 l 114 -86 l 296 958 l 152 958 l 167 1055 l 426 1055 "},"m":{"x_min":44.078125,"x_max":1132.625,"ha":1217,"o":"m 1122 458 l 1042 0 l 930 0 l 1009 454 q 1016 504 1013 483 q 1018 540 1018 525 q 988 635 1018 601 q 902 669 957 669 q 756 601 820 669 q 674 423 693 533 l 598 0 l 486 0 l 566 454 q 573 500 571 479 q 576 539 576 522 q 545 635 576 600 q 461 669 515 669 q 314 601 378 669 q 231 423 250 533 l 155 0 l 44 0 l 177 759 l 290 759 l 268 641 q 375 742 314 708 q 507 777 436 777 q 629 734 581 777 q 687 613 677 691 q 806 735 738 693 q 948 777 873 777 q 1084 721 1036 777 q 1132 562 1132 665 q 1129 513 1132 539 q 1122 458 1127 486 "},"ꙅ":{"x_min":9.53125,"x_max":596.078125,"ha":651,"o":"m 143 737 q 249 767 192 757 q 368 777 305 777 q 552 719 493 777 q 591 554 610 661 q 520 415 576 465 q 356 340 465 364 l 316 330 q 172 278 207 305 q 127 200 136 250 q 155 115 118 145 q 271 84 192 84 q 394 103 331 84 q 526 156 458 120 l 503 27 q 373 -8 434 4 q 256 -19 311 -19 q 60 42 124 -19 q 13 209 -4 103 q 88 354 29 302 q 273 434 149 406 l 314 444 q 442 491 407 466 q 484 559 476 516 q 457 644 493 616 q 336 673 419 673 q 227 659 281 673 q 122 619 174 646 l 143 737 "},"₥":{"x_min":46.796875,"x_max":1135.453125,"ha":1217,"o":"m 347 -128 l 244 -128 l 572 473 q 562 617 585 569 q 464 669 537 669 q 316 604 378 669 q 234 429 254 539 l 160 0 l 46 0 l 180 759 l 293 759 l 271 641 q 382 744 322 710 q 515 777 442 777 q 634 735 590 777 q 678 668 663 710 l 798 888 l 902 888 l 822 743 q 958 777 885 777 q 1108 694 1064 777 q 1125 458 1151 611 l 1045 0 l 931 0 l 1011 454 q 1005 616 1030 563 q 908 669 979 669 q 759 604 820 669 q 677 429 697 540 l 602 0 l 489 0 l 523 193 l 347 -128 "},"8":{"x_min":41.375,"x_max":741.296875,"ha":795,"o":"m 556 307 q 507 432 556 383 q 381 480 459 480 q 224 417 286 480 q 162 257 162 354 q 209 134 162 179 q 337 88 257 88 q 494 150 433 88 q 556 307 556 212 m 619 779 q 576 883 619 843 q 462 922 533 922 q 325 870 379 922 q 271 739 271 817 q 313 630 271 671 q 425 588 356 588 q 564 642 510 588 q 619 779 619 696 m 535 533 q 640 444 604 503 q 677 302 677 385 q 579 71 677 162 q 327 -19 482 -19 q 119 51 196 -19 q 41 242 41 123 q 107 435 41 351 q 281 543 174 520 q 183 618 217 567 q 149 743 149 670 q 241 948 149 866 q 474 1030 333 1030 q 667 964 592 1030 q 741 794 741 897 q 686 634 741 704 q 535 533 630 564 "},"₵":{"x_min":95.9375,"x_max":764.359375,"ha":801,"o":"m 764 805 l 739 661 q 649 763 695 732 q 541 793 603 793 l 418 88 q 537 119 480 88 q 661 221 594 149 l 636 78 q 513 4 573 29 q 399 -19 455 -18 l 366 -204 l 305 -204 l 339 -16 q 172 78 229 0 q 105 436 68 223 l 107 447 q 299 803 145 666 q 498 897 387 882 l 525 1055 l 587 1055 l 560 902 q 667 877 617 900 q 764 805 719 853 m 358 96 l 478 786 q 371 725 420 770 q 256 531 285 646 q 225 352 228 421 q 272 157 219 230 q 358 96 305 111 "},"R":{"x_min":33.90625,"x_max":750.109375,"ha":868,"o":"m 314 900 l 252 540 l 411 540 q 562 597 504 540 q 619 747 619 655 q 581 860 619 821 q 470 900 542 900 l 314 900 m 541 486 q 606 436 580 476 q 666 276 632 396 l 744 0 l 613 0 l 542 259 q 479 394 515 360 q 368 427 442 427 l 232 427 l 157 0 l 33 0 l 210 1012 l 489 1012 q 682 949 615 1012 q 750 766 750 885 q 692 583 750 660 q 541 486 635 505 "},"ꙭ":{"x_min":58.28125,"x_max":1216.046875,"ha":1273,"o":"m 942 672 q 785 593 851 672 q 695 379 719 515 q 710 164 672 242 q 839 86 748 86 q 995 164 929 86 q 1085 379 1062 243 q 1070 593 1109 514 q 942 672 1032 672 m 434 672 q 277 593 343 672 q 187 379 210 515 q 202 164 163 242 q 331 86 240 86 q 487 164 421 86 q 577 379 553 243 q 562 593 600 514 q 434 672 523 672 m 452 777 q 663 672 598 777 q 681 637 674 655 q 711 672 695 655 q 961 777 813 777 q 1172 672 1107 777 q 1205 379 1237 566 q 1070 86 1172 192 q 821 -19 967 -19 q 609 86 674 -19 q 591 121 599 103 q 561 86 577 103 q 313 -19 459 -19 q 101 86 166 -19 q 69 379 36 192 q 203 672 101 566 q 452 777 305 777 m 338 484 l 467 484 l 437 312 l 308 312 l 338 484 m 846 484 l 975 484 l 945 312 l 816 312 l 846 484 "},"á":{"x_min":51.546875,"x_max":713.453125,"ha":766,"o":"m 671 433 l 595 0 l 482 0 l 503 115 q 390 13 454 47 q 250 -19 327 -19 q 107 39 162 -19 q 51 191 51 99 q 146 402 51 324 q 410 479 242 479 l 566 479 l 572 512 q 574 524 573 518 q 575 544 575 531 q 530 638 575 604 q 406 672 486 672 q 293 656 351 672 q 174 609 236 640 l 194 725 q 319 764 258 751 q 436 777 379 777 q 620 719 557 777 q 683 550 683 661 q 680 497 683 527 q 671 433 677 467 m 550 381 l 437 381 q 233 340 299 381 q 167 213 167 299 q 201 120 167 153 q 295 86 234 86 q 454 159 386 86 q 545 354 522 231 l 550 381 m 592 1110 l 713 1110 l 469 855 l 375 855 l 592 1110 "},"×":{"x_min":171.59375,"x_max":876.265625,"ha":1047,"o":"m 876 746 l 597 434 l 876 124 l 803 42 l 523 354 l 243 42 l 171 124 l 449 434 l 171 746 l 243 828 l 523 516 l 803 828 l 876 746 "},"o":{"x_min":57.65625,"x_max":707.390625,"ha":764,"o":"m 317 -19 q 127 62 197 -19 q 57 287 57 145 q 81 456 57 370 q 143 600 105 541 q 279 734 204 691 q 447 777 353 777 q 635 697 564 777 q 707 486 707 616 q 683 306 707 396 q 621 158 659 217 q 486 23 561 67 q 317 -19 412 -19 m 173 291 q 212 137 173 188 q 330 86 251 86 q 517 195 442 86 q 591 473 591 305 q 551 621 591 571 q 435 672 512 672 q 322 639 371 672 q 233 539 272 606 q 189 424 204 489 q 173 291 173 360 "},"5":{"x_min":25.09375,"x_max":726.375,"ha":795,"o":"m 726 1012 l 707 898 l 330 898 l 286 648 q 343 663 314 658 q 402 668 372 668 q 601 592 528 668 q 674 388 674 517 q 637 215 674 298 q 531 70 600 132 q 411 3 482 27 q 257 -19 341 -19 q 145 -8 202 -19 q 25 23 88 2 l 47 151 q 160 105 103 120 q 274 90 217 90 q 471 169 393 90 q 548 368 548 248 q 497 505 548 456 q 355 554 446 554 q 255 541 307 554 q 147 503 202 529 l 236 1012 l 726 1012 "},"₩":{"x_min":53.578125,"x_max":1283.875,"ha":1236,"o":"m 145 704 l 141 784 l 84 784 l 101 881 l 137 881 l 130 1012 l 254 1012 l 261 881 l 585 881 l 637 1012 l 775 1012 l 781 881 l 1106 881 l 1158 1012 l 1283 1012 l 1230 881 l 1265 881 l 1248 784 l 1191 784 l 1160 704 l 1235 704 l 1218 607 l 1121 607 l 877 0 l 722 0 l 695 607 l 577 607 l 336 0 l 181 0 l 150 607 l 53 607 l 70 704 l 145 704 m 796 607 l 817 156 l 997 607 l 796 607 m 787 784 l 790 704 l 1035 704 l 1067 784 l 787 784 m 274 607 l 296 156 l 476 607 l 274 607 m 647 784 l 615 704 l 691 704 l 688 784 l 647 784 m 265 784 l 269 704 l 514 704 l 545 784 l 265 784 "},"õ":{"x_min":57.65625,"x_max":712.59375,"ha":764,"o":"m 317 -19 q 127 62 197 -19 q 57 287 57 145 q 81 456 57 370 q 143 600 105 541 q 279 734 204 691 q 447 777 353 777 q 635 697 564 777 q 707 486 707 616 q 683 306 707 396 q 621 158 659 217 q 486 23 561 67 q 317 -19 412 -19 m 173 291 q 212 137 173 188 q 330 86 251 86 q 517 195 442 86 q 591 473 591 305 q 551 621 591 571 q 435 672 512 672 q 322 639 371 672 q 233 539 272 606 q 189 424 204 489 q 173 291 173 360 m 482 929 l 454 966 q 437 984 446 977 q 417 992 427 990 q 378 968 393 992 q 352 887 362 943 l 275 887 q 333 1029 294 980 q 428 1079 373 1079 q 470 1068 451 1079 q 506 1037 490 1058 l 534 1000 q 550 983 542 989 q 570 973 559 977 q 608 998 593 973 q 635 1079 623 1022 l 712 1079 q 655 936 694 986 q 560 887 616 887 q 516 898 536 887 q 482 929 496 908 "},"₲":{"x_min":40.015625,"x_max":787.421875,"ha":795,"o":"m 356 -111 l 270 -111 l 287 -14 q 90 119 155 6 q 40 342 40 208 q 56 505 40 417 q 226 892 99 753 q 469 1026 329 1005 l 486 1123 l 571 1123 l 555 1030 q 674 1006 619 1027 q 787 934 737 982 l 761 788 q 655 885 714 853 q 535 918 600 915 l 392 92 q 480 105 439 94 q 564 144 526 118 l 613 416 l 539 416 l 558 529 l 735 529 l 660 94 q 511 9 590 37 q 371 -18 443 -15 l 356 -111 m 307 101 l 448 909 q 302 814 363 887 q 181 505 217 710 q 166 351 166 419 q 194 196 166 257 q 307 101 229 123 "},"7":{"x_min":115.96875,"x_max":784.03125,"ha":795,"o":"m 160 1012 l 784 1012 l 772 954 l 251 0 l 115 0 l 608 897 l 139 897 l 160 1012 "},"K":{"x_min":33.90625,"x_max":902.71875,"ha":819,"o":"m 210 1012 l 335 1012 l 259 585 l 738 1012 l 902 1012 l 361 529 l 757 0 l 607 0 l 243 493 l 157 0 l 33 0 l 210 1012 "},",":{"x_min":3.390625,"x_max":241.453125,"ha":397,"o":"m 112 172 l 241 172 l 221 55 l 82 -161 l 3 -161 l 91 55 l 112 172 "},"d":{"x_min":57.65625,"x_max":798.953125,"ha":794,"o":"m 522 113 q 415 14 477 48 q 278 -19 354 -19 q 117 57 176 -19 q 57 270 57 135 q 93 485 57 383 q 198 668 129 587 q 299 749 242 721 q 418 777 356 777 q 535 742 484 777 q 613 641 585 707 l 686 1055 l 798 1055 l 613 0 l 501 0 l 522 113 m 173 293 q 213 139 173 194 q 324 84 253 84 q 421 112 377 84 q 501 196 466 141 q 557 327 537 252 q 578 474 578 402 q 538 621 578 569 q 428 674 498 674 q 329 647 375 674 q 251 567 283 619 q 194 436 216 510 q 173 293 173 361 "},"¨":{"x_min":229.921875,"x_max":616.5,"ha":625,"o":"m 253 1052 l 379 1052 l 354 915 l 229 915 l 253 1052 m 492 1052 l 616 1052 l 592 915 l 468 915 l 492 1052 "},"Ô":{"x_min":50.1875,"x_max":933.90625,"ha":983,"o":"m 570 919 q 391 865 468 919 q 256 698 314 810 q 200 547 219 627 q 181 385 181 467 q 241 168 181 244 q 413 91 302 91 q 592 146 514 91 q 726 311 670 202 q 783 464 763 384 q 803 625 803 545 q 741 842 803 765 q 570 919 680 919 m 410 -19 q 146 90 242 -19 q 50 393 50 201 q 87 617 50 503 q 191 822 124 732 q 363 979 268 927 q 573 1030 459 1030 q 837 921 741 1030 q 933 622 933 811 q 897 393 933 505 q 792 189 860 280 q 619 31 714 83 q 410 -19 525 -19 m 573 1289 l 705 1289 l 801 1108 l 719 1108 l 633 1229 l 505 1108 l 414 1108 l 573 1289 "},"E":{"x_min":33.90625,"x_max":787.421875,"ha":789,"o":"m 210 1012 l 787 1012 l 767 897 l 314 897 l 261 597 l 696 597 l 676 482 l 241 482 l 177 115 l 641 115 l 621 0 l 33 0 l 210 1012 "},"Y":{"x_min":78.671875,"x_max":845.0625,"ha":763,"o":"m 78 1012 l 210 1012 l 381 596 l 706 1012 l 845 1012 l 431 482 l 347 0 l 223 0 l 307 482 l 78 1012 "},"\"":{"x_min":120.046875,"x_max":454.40625,"ha":574,"o":"m 223 1012 l 223 636 l 120 636 l 120 1012 l 223 1012 m 454 1012 l 454 636 l 351 636 l 351 1012 l 454 1012 "},"ê":{"x_min":57.65625,"x_max":713.484375,"ha":769,"o":"m 600 447 q 603 470 602 458 q 604 493 604 481 q 561 623 604 575 q 442 672 517 672 q 294 613 358 672 q 198 446 230 554 l 600 447 m 698 349 l 176 349 q 171 309 172 324 q 170 283 170 294 q 222 137 170 189 q 369 86 274 86 q 508 104 442 86 q 630 158 573 122 l 608 34 q 483 -6 548 7 q 352 -19 419 -19 q 133 55 210 -19 q 57 270 57 131 q 95 491 57 389 q 207 673 133 593 q 320 750 255 723 q 460 777 386 777 q 644 700 576 777 q 713 493 713 623 q 709 426 713 461 q 698 349 706 390 m 468 1110 l 559 1110 l 664 855 l 579 855 l 502 1016 l 358 855 l 274 855 l 468 1110 "},"Ï":{"x_min":33.90625,"x_max":489.75,"ha":368,"o":"m 210 1012 l 335 1012 l 157 0 l 33 0 l 210 1012 m 127 1268 l 251 1268 l 226 1130 l 103 1130 l 127 1268 m 366 1268 l 489 1268 l 466 1130 l 342 1130 l 366 1268 "},"Â":{"x_min":-66.796875,"x_max":768.78125,"ha":855,"o":"m 460 1012 l 599 1012 l 768 0 l 639 0 l 601 259 l 192 259 l 63 0 l -66 0 l 460 1012 m 504 877 l 248 373 l 582 373 l 504 877 m 498 1289 l 630 1289 l 726 1108 l 644 1108 l 558 1229 l 430 1108 l 339 1108 l 498 1289 "},"Í":{"x_min":33.90625,"x_max":478.21875,"ha":368,"o":"m 210 1012 l 335 1012 l 157 0 l 33 0 l 210 1012 m 352 1287 l 478 1287 l 291 1108 l 194 1108 l 352 1287 "},"´":{"x_min":314.703125,"x_max":652.453125,"ha":625,"o":"m 531 1110 l 652 1110 l 408 855 l 314 855 l 531 1110 "},"ì":{"x_min":44.078125,"x_max":328.609375,"ha":347,"o":"m 177 759 l 290 759 l 155 0 l 44 0 l 177 759 m 200 1110 l 328 857 l 234 857 l 80 1110 l 200 1110 "},"±":{"x_min":132.25,"x_max":914.921875,"ha":1047,"o":"m 575 870 l 575 608 l 914 608 l 914 493 l 575 493 l 575 230 l 472 230 l 472 493 l 132 493 l 132 608 l 472 608 l 472 870 l 575 870 m 132 115 l 914 115 l 914 0 l 132 0 l 132 115 "},"Ú":{"x_min":72.5625,"x_max":891.1875,"ha":915,"o":"m 193 1012 l 317 1012 l 210 397 q 200 329 203 356 q 198 282 198 302 q 244 140 198 188 q 382 91 291 91 q 566 163 500 91 q 659 397 632 235 l 767 1012 l 891 1012 l 781 380 q 644 77 745 175 q 368 -19 543 -19 q 152 56 231 -19 q 72 263 72 132 q 75 317 72 287 q 84 380 78 346 l 193 1012 m 625 1287 l 751 1287 l 564 1108 l 467 1108 l 625 1287 "},"|":{"x_min":158.703125,"x_max":262.46875,"ha":421,"o":"m 262 1061 l 262 -327 l 158 -327 l 158 1061 l 262 1061 "},"§":{"x_min":14.921875,"x_max":606.328125,"ha":625,"o":"m 367 278 q 443 348 417 311 q 470 425 470 386 q 437 500 470 461 q 317 600 404 538 l 268 634 q 193 562 219 600 q 167 486 167 524 q 193 419 167 452 q 295 330 219 386 l 367 278 m 606 991 l 586 880 q 500 920 542 906 q 423 933 459 933 q 320 900 360 933 q 280 817 280 867 q 362 703 280 764 q 391 682 381 689 l 444 641 q 545 544 519 583 q 571 457 571 504 q 531 327 571 388 q 421 230 491 266 q 458 176 446 206 q 471 108 471 145 q 397 -65 471 2 q 201 -132 322 -132 q 112 -122 159 -132 q 14 -92 65 -112 l 34 18 q 125 -21 81 -7 q 204 -34 168 -34 q 314 -2 273 -34 q 355 83 355 29 q 245 231 355 149 l 236 238 l 189 273 q 89 368 114 330 q 64 457 64 406 q 103 580 64 522 q 215 682 143 639 q 176 735 188 708 q 164 797 164 763 q 239 964 164 897 q 427 1030 313 1030 q 514 1021 470 1030 q 606 991 558 1011 "},"Ý":{"x_min":78.671875,"x_max":845.0625,"ha":763,"o":"m 78 1012 l 210 1012 l 381 596 l 706 1012 l 845 1012 l 431 482 l 347 0 l 223 0 l 307 482 l 78 1012 m 550 1287 l 676 1287 l 489 1108 l 392 1108 l 550 1287 "},"b":{"x_min":45.4375,"x_max":733.84375,"ha":794,"o":"m 619 463 q 578 617 619 562 q 466 673 537 673 q 368 645 414 673 q 290 563 323 617 q 233 433 254 507 q 213 284 213 358 q 253 138 213 191 q 363 84 293 84 q 462 112 417 84 q 541 193 507 139 q 597 322 576 248 q 619 463 619 396 m 269 644 q 374 742 311 706 q 504 777 436 777 q 671 699 609 777 q 733 486 733 620 q 697 273 733 376 q 594 90 661 170 q 492 8 550 37 q 372 -19 435 -19 q 257 14 305 -19 q 177 115 208 48 l 157 0 l 45 0 l 229 1055 l 342 1055 l 269 644 "},"q":{"x_min":57.65625,"x_max":746.71875,"ha":794,"o":"m 521 113 q 414 14 476 48 q 278 -19 353 -19 q 116 57 174 -19 q 57 271 57 135 q 93 484 57 381 q 198 668 130 586 q 298 749 241 720 q 418 777 356 777 q 543 744 494 777 q 613 644 592 711 l 633 758 l 746 758 l 564 -286 l 451 -286 l 521 113 m 173 290 q 211 137 173 189 q 320 84 249 84 q 502 197 427 84 q 577 472 577 310 q 538 621 577 569 q 427 673 499 673 q 328 646 374 673 q 250 565 283 618 q 194 435 215 510 q 173 290 173 360 "},"Ö":{"x_min":50.1875,"x_max":933.90625,"ha":983,"o":"m 570 919 q 391 865 468 919 q 256 698 314 810 q 200 547 219 627 q 181 385 181 467 q 241 168 181 244 q 413 91 302 91 q 592 146 514 91 q 726 311 670 202 q 783 464 763 384 q 803 625 803 545 q 741 842 803 765 q 570 919 680 919 m 410 -19 q 146 90 242 -19 q 50 393 50 201 q 87 617 50 503 q 191 822 124 732 q 363 979 268 927 q 573 1030 459 1030 q 837 921 741 1030 q 933 622 933 811 q 897 393 933 505 q 792 189 860 280 q 619 31 714 83 q 410 -19 525 -19 m 455 1268 l 579 1268 l 554 1130 l 431 1130 l 455 1268 m 694 1268 l 817 1268 l 794 1130 l 670 1130 l 694 1268 "},"z":{"x_min":-3.71875,"x_max":678.578125,"ha":656,"o":"m 144 759 l 678 759 l 658 645 l 143 99 l 568 99 l 551 0 l -3 0 l 15 113 l 530 659 l 127 659 l 144 759 "},"":{"x_min":33.90625,"x_max":718.921875,"ha":764,"o":"m 408 672 q 252 593 319 672 q 162 379 186 515 q 153 269 153 326 q 177 164 153 212 q 306 86 216 86 q 462 164 396 86 q 552 378 529 243 q 562 486 562 430 q 538 592 562 543 q 408 672 499 672 m 408 1055 l 718 1055 l 701 955 l 413 955 q 282 862 298 955 q 280 843 280 852 q 309 793 280 809 q 428 777 339 777 q 638 672 573 777 q 682 495 682 601 q 672 379 682 442 q 537 86 639 193 q 288 -19 434 -19 q 76 86 141 -19 q 33 263 33 157 q 44 379 33 316 q 221 710 84 604 q 160 847 160 756 q 161 870 160 859 q 244 1005 176 954 q 408 1055 312 1055 "},"ꚍ":{"x_min":85.453125,"x_max":758.25,"ha":728,"o":"m 103 759 l 758 759 l 740 659 l 466 659 l 399 275 q 398 138 381 171 q 479 105 415 105 l 510 105 l 491 0 l 448 0 q 299 65 338 0 q 286 275 261 130 l 354 659 l 85 659 l 103 759 "},"Ꚋ":{"x_min":53.578125,"x_max":904.078125,"ha":1006,"o":"m 73 1012 l 845 1012 l 825 897 l 499 897 l 447 597 l 701 597 q 869 516 815 597 q 904 381 904 466 q 893 278 904 334 l 857 70 q 749 -195 826 -111 q 533 -278 672 -278 l 486 -278 l 507 -162 l 545 -162 q 670 -111 626 -162 q 735 70 712 -62 l 769 267 q 777 345 777 309 q 760 428 777 396 q 656 482 733 482 l 427 482 l 343 0 l 219 0 l 375 897 l 53 897 l 73 1012 "},"ã":{"x_min":51.546875,"x_max":702.59375,"ha":766,"o":"m 671 433 l 595 0 l 482 0 l 503 115 q 390 13 454 47 q 250 -19 327 -19 q 107 39 162 -19 q 51 191 51 99 q 146 402 51 324 q 410 479 242 479 l 566 479 l 572 512 q 574 524 573 518 q 575 544 575 531 q 530 638 575 604 q 406 672 486 672 q 293 656 351 672 q 174 609 236 640 l 194 725 q 319 764 258 751 q 436 777 379 777 q 620 719 557 777 q 683 550 683 661 q 680 497 683 527 q 671 433 677 467 m 550 381 l 437 381 q 233 340 299 381 q 167 213 167 299 q 201 120 167 153 q 295 86 234 86 q 454 159 386 86 q 545 354 522 231 l 550 381 m 472 929 l 444 966 q 427 984 436 977 q 407 992 417 990 q 368 968 383 992 q 342 887 352 943 l 265 887 q 323 1029 284 980 q 418 1079 363 1079 q 460 1068 441 1079 q 496 1037 480 1058 l 524 1000 q 540 983 532 989 q 560 973 549 977 q 598 998 583 973 q 625 1079 613 1022 l 702 1079 q 645 936 684 986 q 550 887 606 887 q 506 898 526 887 q 472 929 486 908 "},"æ":{"x_min":51.546875,"x_max":1188.921875,"ha":1244,"o":"m 1076 447 q 1078 470 1077 458 q 1079 493 1079 481 q 1036 623 1079 575 q 917 672 992 672 q 769 613 833 672 q 672 446 705 554 l 1076 447 m 194 725 q 319 764 258 751 q 436 777 379 777 q 580 747 524 777 q 665 654 637 716 q 786 746 717 715 q 935 777 854 777 q 1120 700 1051 777 q 1188 493 1188 623 q 1185 426 1188 461 q 1174 349 1181 390 l 651 349 q 646 309 647 324 q 644 283 644 294 q 697 137 644 189 q 845 86 749 86 q 983 104 918 86 q 1104 158 1049 122 l 1083 34 q 958 -6 1022 7 q 827 -19 893 -19 q 655 19 725 -19 q 552 134 586 58 q 423 17 490 54 q 275 -19 356 -19 q 110 35 168 -19 q 51 191 51 91 q 146 402 51 324 q 410 479 242 479 l 566 479 l 572 512 q 574 524 573 518 q 575 544 575 531 q 530 638 575 604 q 406 672 486 672 q 293 656 351 672 q 174 609 236 640 l 194 725 m 550 381 l 437 381 q 233 340 299 381 q 167 213 167 299 q 201 120 167 153 q 295 86 234 86 q 454 159 386 86 q 545 354 522 231 l 550 381 "},"®":{"x_min":172.953125,"x_max":1077.015625,"ha":1250,"o":"m 625 937 q 476 905 545 937 q 349 809 406 873 q 263 668 292 746 q 233 502 233 590 q 263 338 233 415 q 349 197 292 261 q 476 101 406 133 q 625 69 545 69 q 774 101 705 69 q 901 197 844 133 q 986 337 958 260 q 1015 502 1015 413 q 986 669 1015 592 q 901 809 957 746 q 774 905 844 873 q 625 937 705 937 m 625 1007 q 797 969 717 1007 q 944 858 878 932 q 1044 695 1011 784 q 1077 502 1077 607 q 1044 310 1077 399 q 944 148 1011 222 q 797 37 878 74 q 625 0 717 0 q 452 37 532 0 q 305 148 371 74 q 205 310 238 222 q 172 502 172 399 q 205 695 172 607 q 305 858 238 784 q 452 969 371 932 q 625 1007 532 1007 m 608 726 l 533 726 l 533 539 l 608 539 q 702 560 675 539 q 729 632 729 581 q 701 705 729 683 q 608 726 674 726 m 613 796 q 773 755 720 796 q 826 633 826 715 q 794 537 826 575 q 704 487 762 499 q 738 456 718 482 q 787 380 759 430 l 870 229 l 766 229 l 687 370 q 629 453 651 436 q 573 470 607 470 l 533 470 l 533 229 l 438 229 l 438 796 l 613 796 "},"É":{"x_min":33.90625,"x_max":787.421875,"ha":789,"o":"m 210 1012 l 787 1012 l 767 897 l 314 897 l 261 597 l 696 597 l 676 482 l 241 482 l 177 115 l 641 115 l 621 0 l 33 0 l 210 1012 m 570 1287 l 696 1287 l 509 1108 l 412 1108 l 570 1287 "},"~":{"x_min":132.25,"x_max":914.921875,"ha":1047,"o":"m 914 554 l 914 433 q 796 356 851 379 q 682 333 741 333 q 526 373 615 333 q 516 377 519 376 q 503 383 512 379 q 351 425 408 425 q 244 399 297 425 q 132 316 192 373 l 132 437 q 251 514 196 491 q 364 537 305 537 q 522 497 432 537 q 531 493 527 494 q 544 487 535 491 q 696 445 638 445 q 800 471 748 445 q 914 554 851 497 "},"³":{"x_min":20.34375,"x_max":460.515625,"ha":501,"o":"m 131 1007 q 220 1025 181 1019 q 292 1030 259 1030 q 414 995 368 1030 q 460 901 460 959 q 425 810 460 849 q 331 759 390 771 q 401 716 377 748 q 425 636 425 685 q 358 496 425 550 q 177 442 290 442 q 98 450 138 442 q 20 470 59 457 l 34 552 q 101 525 67 534 q 173 516 135 516 q 291 548 248 516 q 333 634 333 579 q 304 698 333 676 q 215 719 274 719 l 162 719 l 176 792 l 232 792 q 329 817 295 792 q 364 885 364 841 q 339 939 364 921 q 265 956 314 956 q 192 949 230 956 q 118 929 155 942 l 131 1007 "},"₧":{"x_min":33.90625,"x_max":1561.953125,"ha":1588,"o":"m 314 900 l 248 519 l 404 519 q 565 579 509 519 q 621 750 621 638 q 583 860 621 821 q 476 900 545 900 l 314 900 m 741 662 q 655 499 721 563 q 383 406 558 406 l 229 406 l 157 0 l 33 0 l 210 1012 l 496 1012 q 686 948 620 1012 q 751 759 751 883 l 822 759 l 859 975 l 972 975 l 935 759 l 1159 759 l 1154 727 q 1349 777 1230 777 q 1458 767 1405 777 q 1561 737 1511 757 l 1540 619 q 1446 659 1496 646 q 1344 673 1397 673 q 1205 639 1256 673 q 1154 548 1154 606 q 1272 445 1154 481 q 1285 441 1281 442 l 1321 429 q 1472 356 1434 394 q 1509 252 1509 318 q 1423 56 1509 132 q 1197 -19 1336 -19 q 1083 -8 1142 -19 q 1032 3 1059 -3 l 1032 0 l 925 0 q 775 43 824 0 q 726 174 726 86 q 728 209 726 190 q 733 250 729 227 l 806 662 l 741 662 m 1086 662 l 918 662 l 845 250 q 840 211 842 227 q 838 187 838 196 q 862 124 838 143 q 937 104 885 104 l 963 104 l 973 156 q 1094 103 1034 121 q 1209 84 1154 84 q 1342 124 1291 84 q 1394 223 1394 163 q 1259 328 1394 288 l 1247 332 l 1209 343 q 1084 409 1123 368 q 1044 514 1044 450 q 1086 662 1044 601 "},"¡":{"x_min":106.484375,"x_max":407.609375,"ha":501,"o":"m 229 0 l 106 0 l 183 444 l 238 686 l 337 686 l 307 444 l 229 0 m 375 840 l 252 840 l 282 1012 l 407 1012 l 375 840 "},"Ꚍ":{"x_min":53.578125,"x_max":845.0625,"ha":763,"o":"m 73 1012 l 845 1012 l 825 897 l 498 897 l 402 348 q 404 166 379 217 q 510 115 429 115 l 549 115 l 529 0 l 482 0 q 295 82 343 0 q 279 348 246 164 l 375 897 l 53 897 l 73 1012 "},"ꙩ":{"x_min":57.65625,"x_max":707.390625,"ha":764,"o":"m 338 484 l 467 484 l 437 312 l 308 312 l 338 484 m 317 -19 q 127 62 197 -19 q 57 287 57 145 q 81 456 57 370 q 143 600 105 541 q 279 734 204 691 q 447 777 353 777 q 635 697 564 777 q 707 486 707 616 q 683 306 707 396 q 621 158 659 217 q 486 23 561 67 q 317 -19 412 -19 m 173 291 q 212 137 173 188 q 330 86 251 86 q 517 195 442 86 q 591 473 591 305 q 551 621 591 571 q 435 672 512 672 q 322 639 371 672 q 233 539 272 606 q 189 424 204 489 q 173 291 173 360 "},"[":{"x_min":50.1875,"x_max":524.9375,"ha":488,"o":"m 265 1055 l 524 1055 l 507 958 l 361 958 l 179 -86 l 324 -86 l 308 -183 l 50 -183 l 265 1055 "},"L":{"x_min":33.90625,"x_max":621.25,"ha":696,"o":"m 210 1012 l 333 1012 l 177 113 l 621 113 l 600 0 l 33 0 l 210 1012 "}," ":{"x_min":0,"x_max":0,"ha":397},"ꙫ":{"x_min":59.875,"x_max":831.578125,"ha":891,"o":"m 289 484 l 417 484 l 387 311 l 259 311 l 289 484 m 509 484 l 637 484 l 607 311 l 478 311 l 509 484 m 497 672 q 294 593 377 672 q 187 379 211 515 q 219 164 164 242 q 394 86 274 86 q 595 164 512 86 q 702 379 678 243 q 670 593 726 514 q 497 672 615 672 m 515 777 q 773 672 691 777 q 822 379 855 566 q 671 86 790 192 q 375 -19 552 -19 q 118 86 199 -19 q 69 379 36 192 q 220 672 101 566 q 515 777 339 777 "},"%":{"x_min":113.265625,"x_max":1073.625,"ha":1188,"o":"m 293 479 q 161 539 210 479 q 113 702 113 599 q 184 940 113 849 q 368 1030 255 1030 q 500 970 451 1030 q 548 805 548 909 q 477 570 548 660 q 293 479 406 479 m 451 801 q 427 908 451 872 q 356 944 403 944 q 249 878 288 944 q 210 695 210 813 q 235 599 210 633 q 306 565 260 565 q 411 630 371 565 q 451 801 451 694 m 975 302 q 952 411 975 375 q 882 446 929 446 q 776 380 815 446 q 737 197 737 314 q 761 100 737 134 q 832 66 786 66 q 936 130 897 66 q 975 302 975 195 m 819 -19 q 688 40 736 -19 q 640 204 640 101 q 710 441 640 350 q 894 531 781 531 q 1025 472 978 531 q 1073 308 1073 412 q 1003 71 1073 162 q 819 -19 932 -19 m 1027 1030 l 274 -19 l 176 -19 l 930 1030 l 1027 1030 "},"P":{"x_min":33.90625,"x_max":751.46875,"ha":754,"o":"m 210 1012 l 496 1012 q 686 948 620 1012 q 751 759 751 883 q 655 499 751 592 q 383 406 558 406 l 229 406 l 157 0 l 33 0 l 210 1012 m 314 900 l 248 519 l 404 519 q 565 579 509 519 q 621 750 621 638 q 583 860 621 821 q 476 900 545 900 l 314 900 "},"À":{"x_min":-66.796875,"x_max":768.78125,"ha":855,"o":"m 460 1012 l 599 1012 l 768 0 l 639 0 l 601 259 l 192 259 l 63 0 l -66 0 l 460 1012 m 504 877 l 248 373 l 582 373 l 504 877 m 527 1287 l 617 1108 l 532 1108 l 416 1287 l 527 1287 "},"_":{"x_min":-12.203125,"x_max":637.53125,"ha":625,"o":"m 637 -230 l 637 -327 l -12 -327 l -12 -230 l 637 -230 "},"ñ":{"x_min":44.078125,"x_max":724.59375,"ha":792,"o":"m 696 458 l 616 0 l 503 0 l 583 453 q 592 510 588 485 q 595 548 595 534 q 562 637 595 605 q 472 669 530 669 q 316 602 381 669 q 231 421 251 535 l 155 0 l 44 0 l 176 759 l 288 759 l 265 640 q 379 741 313 706 q 517 777 444 777 q 657 723 607 777 q 707 571 707 669 q 704 518 707 546 q 696 458 701 491 m 494 929 l 466 966 q 449 984 458 977 q 429 992 439 990 q 390 968 405 992 q 364 887 374 943 l 287 887 q 345 1029 306 980 q 440 1079 385 1079 q 482 1068 463 1079 q 518 1037 502 1058 l 546 1000 q 562 983 554 989 q 582 973 571 977 q 620 998 605 973 q 647 1079 635 1022 l 724 1079 q 667 936 706 986 q 572 887 628 887 q 528 898 548 887 q 494 929 508 908 "},"+":{"x_min":132.25,"x_max":914.921875,"ha":1047,"o":"m 575 870 l 575 493 l 914 493 l 914 377 l 575 377 l 575 0 l 472 0 l 472 377 l 132 377 l 132 493 l 472 493 l 472 870 l 575 870 "},"½":{"x_min":82.75,"x_max":1190.859375,"ha":1211,"o":"m 94 527 l 219 527 l 292 942 l 152 914 l 166 992 l 306 1019 l 394 1019 l 308 527 l 434 527 l 419 453 l 82 453 l 94 527 m 926 1030 l 1035 1030 l 283 -19 l 173 -19 l 926 1030 m 1112 286 l 877 77 l 1146 77 l 1132 0 l 755 0 l 768 74 l 1026 305 q 1079 365 1062 336 q 1097 421 1097 394 q 1072 481 1097 458 q 1003 503 1046 503 q 929 492 969 503 q 838 456 889 480 l 853 539 q 941 568 900 558 q 1022 577 983 577 q 1144 539 1097 577 q 1190 440 1190 500 q 1171 359 1190 398 q 1112 286 1152 321 "},"Ꙧ":{"x_min":33.90625,"x_max":1488.015625,"ha":1078,"o":"m 210 1012 l 396 1012 l 502 330 l 855 1012 l 1488 1012 l 1467 897 l 1024 897 l 867 0 l 747 0 l 902 887 l 545 194 l 424 194 l 308 890 l 153 0 l 33 0 l 210 1012 "},"Æ":{"x_min":-56.625,"x_max":1242.171875,"ha":1217,"o":"m 568 905 l 273 373 l 553 373 l 647 905 l 568 905 m 1242 1012 l 1222 897 l 770 897 l 716 597 l 1150 597 l 1130 482 l 696 482 l 631 115 l 1095 115 l 1076 0 l 488 0 l 533 259 l 211 259 l 68 0 l -56 0 l 502 1012 l 1242 1012 "},"ꙍ":{"x_min":76.640625,"x_max":1197.0625,"ha":1285,"o":"m 1167 654 q 1197 423 1197 537 q 1184 273 1197 347 q 889 -19 1132 -19 q 760 56 838 -19 q 609 133 682 133 q 431 56 536 133 q 276 -19 326 -19 q 76 179 76 -19 q 85 274 76 222 q 236 654 118 461 l 356 654 q 198 263 229 432 q 193 201 193 228 q 295 86 193 86 q 384 124 333 86 q 482 193 467 185 q 627 231 550 231 q 758 193 704 231 q 832 124 769 185 q 908 86 870 86 q 1066 264 1035 86 q 1077 396 1077 326 q 1046 654 1077 514 l 1167 654 "},"₣":{"x_min":39.34375,"x_max":820.65625,"ha":795,"o":"m 169 276 l 298 1012 l 820 1012 l 800 897 l 400 897 l 348 598 l 710 598 l 689 483 l 328 483 l 292 276 l 422 276 l 404 176 l 274 176 l 243 0 l 120 0 l 151 176 l 39 176 l 57 276 l 169 276 "},"Ë":{"x_min":33.90625,"x_max":787.421875,"ha":789,"o":"m 210 1012 l 787 1012 l 767 897 l 314 897 l 261 597 l 696 597 l 676 482 l 241 482 l 177 115 l 641 115 l 621 0 l 33 0 l 210 1012 m 345 1268 l 469 1268 l 444 1130 l 321 1130 l 345 1268 m 584 1268 l 707 1268 l 684 1130 l 560 1130 l 584 1268 "},"'":{"x_min":120.046875,"x_max":223.8125,"ha":343,"o":"m 223 1012 l 223 636 l 120 636 l 120 1012 l 223 1012 "},"ª":{"x_min":50.1875,"x_max":557.5,"ha":589,"o":"m 362 748 q 223 723 266 748 q 180 641 180 697 q 203 577 180 601 q 265 554 226 554 q 384 599 336 554 q 448 729 432 645 l 452 748 l 362 748 m 551 790 l 497 486 l 406 486 l 419 562 q 337 495 384 518 q 232 473 290 473 q 127 514 167 473 q 87 623 87 556 q 158 772 87 718 q 355 826 228 826 l 466 826 l 466 829 q 467 849 467 842 q 468 861 468 856 q 440 930 468 908 q 351 952 412 952 q 263 941 307 952 q 174 906 219 929 l 189 992 q 284 1021 238 1011 q 372 1030 330 1030 q 510 988 463 1030 q 557 865 557 946 q 555 828 557 847 q 551 790 554 809 m 63 401 l 484 401 l 470 318 l 50 318 l 63 401 "},"Ꚕ":{"x_min":149.203125,"x_max":834.21875,"ha":857,"o":"m 401 737 l 377 597 l 632 597 q 800 516 745 597 q 834 381 834 466 q 824 278 834 334 l 776 0 l 653 0 l 699 267 q 707 344 707 309 q 690 428 707 396 q 586 482 661 482 l 356 482 l 272 0 l 149 0 l 278 737 q 364 947 303 881 q 535 1012 425 1012 l 691 1012 l 672 906 l 541 906 q 448 873 478 906 q 401 737 419 841 "},"₭":{"x_min":33.90625,"x_max":902.71875,"ha":819,"o":"m 135 581 l 210 1012 l 335 1012 l 259 585 l 738 1012 l 902 1012 l 420 581 l 701 581 l 701 504 l 379 504 l 757 0 l 607 0 l 243 493 l 157 0 l 33 0 l 122 504 l 52 504 l 52 581 l 135 581 "},"ð":{"x_min":56.296875,"x_max":733.84375,"ha":764,"o":"m 619 773 q 682 629 661 704 q 704 474 704 554 q 679 296 704 382 q 609 143 655 210 q 483 22 558 64 q 320 -19 408 -19 q 128 60 200 -19 q 56 271 56 139 q 81 433 56 353 q 152 581 106 513 q 280 702 206 660 q 438 744 354 744 q 468 742 451 744 q 510 737 486 741 l 435 859 l 221 787 l 201 851 l 400 916 l 316 1055 l 448 1055 l 507 956 l 712 1030 l 733 966 l 542 900 l 619 773 m 557 620 q 504 637 531 632 q 451 642 478 642 q 250 540 327 642 q 172 276 172 438 q 212 134 172 183 q 330 86 252 86 q 515 195 441 86 q 590 470 590 305 q 582 553 590 516 q 557 620 574 590 "},"T":{"x_min":53.578125,"x_max":845.0625,"ha":763,"o":"m 73 1012 l 845 1012 l 825 897 l 499 897 l 343 0 l 219 0 l 375 897 l 53 897 l 73 1012 "},"ꙧ":{"x_min":46.796875,"x_max":1265.5625,"ha":1259,"o":"m 180 759 l 344 759 l 448 250 l 733 759 l 1265 759 l 1247 659 l 878 659 l 763 0 l 649 0 l 762 639 l 486 145 l 375 145 l 271 640 l 160 0 l 46 0 l 180 759 "},"Þ":{"x_min":33.90625,"x_max":721.625,"ha":760,"o":"m 354 229 l 198 229 l 157 0 l 33 0 l 210 1012 l 335 1012 l 303 833 l 466 833 q 656 769 590 833 q 721 580 721 704 q 624 321 721 413 q 354 229 528 229 m 284 720 l 218 341 l 373 341 q 535 401 478 341 q 591 572 591 460 q 553 681 591 642 q 446 720 515 720 l 284 720 "},"₮":{"x_min":53.578125,"x_max":845.0625,"ha":763,"o":"m 314 545 l 375 897 l 53 897 l 73 1012 l 845 1012 l 825 897 l 499 897 l 454 635 l 556 701 l 560 649 l 443 574 l 427 483 l 539 555 l 543 503 l 417 422 l 343 0 l 219 0 l 278 333 l 179 269 l 175 322 l 288 394 l 303 484 l 196 415 l 192 467 l 314 545 "},"j":{"x_min":-141.40625,"x_max":345.5625,"ha":347,"o":"m 180 759 l 293 759 l 158 -13 l 157 -16 q 106 -194 135 -146 q 25 -264 78 -240 q -99 -288 -27 -288 l -141 -288 l -123 -183 l -94 -183 q 0 -152 -28 -183 q 45 -13 26 -122 l 180 759 m 233 1055 l 345 1055 l 318 897 l 205 897 l 233 1055 "},"1":{"x_min":61.046875,"x_max":606.328125,"ha":795,"o":"m 81 115 l 282 115 l 418 894 l 191 845 l 212 963 l 438 1012 l 562 1012 l 405 115 l 606 115 l 586 0 l 61 0 l 81 115 "},"₡":{"x_min":52.21875,"x_max":794.875,"ha":795,"o":"m 622 1021 q 672 1007 648 1015 q 681 1003 672 1007 l 712 1080 l 794 1080 l 748 967 q 790 934 769 952 l 767 790 q 702 855 735 828 l 389 91 l 397 91 q 543 121 473 91 q 681 212 614 151 l 655 50 q 522 -2 590 15 q 388 -19 455 -19 q 345 -16 366 -19 l 327 -60 l 246 -60 l 270 -1 q 215 23 240 8 l 180 -61 l 99 -61 l 153 72 q 141 86 147 79 q 52 380 52 191 q 86 617 52 501 q 183 830 120 734 q 337 982 250 933 q 538 1030 423 1030 l 545 1030 l 564 1080 l 647 1080 l 622 1021 m 499 918 q 361 864 421 911 q 238 694 289 808 q 187 539 204 621 q 169 375 169 457 q 204 199 169 267 l 499 918 m 637 895 q 579 914 609 908 l 259 132 q 314 104 283 114 l 637 895 "},"ä":{"x_min":51.546875,"x_max":683.65625,"ha":766,"o":"m 671 433 l 595 0 l 482 0 l 503 115 q 390 13 454 47 q 250 -19 327 -19 q 107 39 162 -19 q 51 191 51 99 q 146 402 51 324 q 410 479 242 479 l 566 479 l 572 512 q 574 524 573 518 q 575 544 575 531 q 530 638 575 604 q 406 672 486 672 q 293 656 351 672 q 174 609 236 640 l 194 725 q 319 764 258 751 q 436 777 379 777 q 620 719 557 777 q 683 550 683 661 q 680 497 683 527 q 671 433 677 467 m 550 381 l 437 381 q 233 340 299 381 q 167 213 167 299 q 201 120 167 153 q 295 86 234 86 q 454 159 386 86 q 545 354 522 231 l 550 381 m 314 1052 l 440 1052 l 415 915 l 290 915 l 314 1052 m 553 1052 l 677 1052 l 653 915 l 529 915 l 553 1052 "},"<":{"x_min":132.25,"x_max":914.921875,"ha":1047,"o":"m 914 683 l 284 434 l 914 187 l 914 63 l 132 379 l 132 491 l 914 807 l 914 683 "},"£":{"x_min":29.84375,"x_max":796.234375,"ha":795,"o":"m 796 990 l 775 866 q 697 908 737 893 q 619 922 657 922 q 483 868 529 922 q 413 673 438 814 l 388 527 l 627 527 l 609 430 l 370 430 l 316 115 l 644 115 l 623 0 l 29 0 l 50 115 l 193 115 l 248 430 l 127 430 l 145 527 l 265 527 l 293 689 q 405 948 325 866 q 626 1030 484 1030 q 711 1020 668 1030 q 796 990 754 1010 "},"¹":{"x_min":82.75,"x_max":434.0625,"ha":501,"o":"m 94 527 l 219 527 l 292 942 l 152 914 l 166 992 l 306 1019 l 394 1019 l 308 527 l 434 527 l 419 453 l 82 453 l 94 527 "},"t":{"x_min":80.03125,"x_max":528.328125,"ha":490,"o":"m 528 759 l 511 662 l 287 662 l 215 250 q 209 211 210 227 q 207 187 207 196 q 230 124 207 143 q 306 104 254 104 l 419 104 l 400 0 l 293 0 q 144 43 193 0 q 94 174 94 86 q 96 209 94 190 q 102 250 99 227 l 174 662 l 80 662 l 97 759 l 191 759 l 229 975 l 341 975 l 303 759 l 528 759 "},"¬":{"x_min":132.25,"x_max":914.921875,"ha":1047,"o":"m 132 584 l 914 584 l 914 194 l 812 194 l 812 469 l 132 469 l 132 584 "},"Ꙗ":{"x_min":40.015625,"x_max":1144.84375,"ha":1231,"o":"m 881 877 l 625 373 l 959 373 l 881 877 m 836 1012 l 975 1012 l 1144 0 l 1015 0 l 978 259 l 568 259 l 439 0 l 309 0 l 542 448 l 242 448 l 163 0 l 40 0 l 217 1012 l 340 1012 l 262 563 l 602 563 l 836 1012 "},"ù":{"x_min":71.21875,"x_max":735.875,"ha":792,"o":"m 83 301 l 163 759 l 276 759 l 196 305 q 187 248 190 272 q 185 209 185 225 q 216 120 185 151 q 306 88 248 88 q 462 156 396 88 q 548 339 528 224 l 623 759 l 735 759 l 603 0 l 491 0 l 514 119 q 400 16 466 52 q 261 -19 335 -19 q 121 34 171 -19 q 71 187 71 89 q 74 238 71 207 q 83 301 77 268 m 421 1110 l 549 857 l 455 857 l 301 1110 l 421 1110 "},"W":{"x_min":120.046875,"x_max":1275.0625,"ha":1236,"o":"m 120 1012 l 240 1012 l 283 151 l 627 1012 l 765 1012 l 809 151 l 1150 1012 l 1275 1012 l 869 0 l 714 0 l 672 844 l 331 0 l 176 0 l 120 1012 "},"ꚕ":{"x_min":21.703125,"x_max":684.296875,"ha":792,"o":"m 246 641 l 246 641 q 358 744 298 710 q 491 777 419 777 q 655 697 609 777 q 674 458 701 615 l 594 0 l 481 0 l 560 454 q 551 615 579 562 q 447 669 522 669 q 292 604 356 669 q 209 429 229 540 l 134 0 l 21 0 l 140 679 l 157 779 q 244 990 183 925 q 415 1055 305 1055 l 571 1055 l 552 949 l 410 949 q 317 916 345 949 q 269 779 288 883 l 246 641 "},"ï":{"x_min":44.078125,"x_max":459.5,"ha":347,"o":"m 177 759 l 290 759 l 155 0 l 44 0 l 177 759 m 96 1052 l 222 1052 l 197 915 l 72 915 l 96 1052 m 335 1052 l 459 1052 l 435 915 l 311 915 l 335 1052 "},">":{"x_min":132.25,"x_max":914.921875,"ha":1047,"o":"m 132 683 l 132 807 l 914 491 l 914 379 l 132 63 l 132 187 l 760 434 l 132 683 "},"v":{"x_min":89.53125,"x_max":754.859375,"ha":739,"o":"m 89 759 l 208 759 l 308 113 l 636 759 l 754 759 l 366 0 l 215 0 l 89 759 "},"û":{"x_min":71.21875,"x_max":735.875,"ha":792,"o":"m 83 301 l 163 759 l 276 759 l 196 305 q 187 248 190 272 q 185 209 185 225 q 216 120 185 151 q 306 88 248 88 q 462 156 396 88 q 548 339 528 224 l 623 759 l 735 759 l 603 0 l 491 0 l 514 119 q 400 16 466 52 q 261 -19 335 -19 q 121 34 171 -19 q 71 187 71 89 q 74 238 71 207 q 83 301 77 268 m 464 1110 l 555 1110 l 660 855 l 575 855 l 498 1016 l 354 855 l 270 855 l 464 1110 "},"Ò":{"x_min":50.1875,"x_max":933.90625,"ha":983,"o":"m 570 919 q 391 865 468 919 q 256 698 314 810 q 200 547 219 627 q 181 385 181 467 q 241 168 181 244 q 413 91 302 91 q 592 146 514 91 q 726 311 670 202 q 783 464 763 384 q 803 625 803 545 q 741 842 803 765 q 570 919 680 919 m 410 -19 q 146 90 242 -19 q 50 393 50 201 q 87 617 50 503 q 191 822 124 732 q 363 979 268 927 q 573 1030 459 1030 q 837 921 741 1030 q 933 622 933 811 q 897 393 933 505 q 792 189 860 280 q 619 31 714 83 q 410 -19 525 -19 m 602 1287 l 692 1108 l 607 1108 l 491 1287 l 602 1287 "},"Ꙣ":{"x_min":-46.453125,"x_max":1362.21875,"ha":1280,"o":"m 55 115 q 182 239 144 158 q 342 821 277 445 l 376 1012 l 1362 1012 l 1341 897 l 898 897 l 761 115 l 865 115 l 807 -217 l 703 -217 l 741 0 l 95 0 l 58 -217 l -46 -217 l 11 115 l 55 115 m 235 115 l 637 115 l 774 897 l 478 897 l 454 753 q 287 190 394 415 q 235 115 264 144 "},"Ꙑ":{"x_min":105.125,"x_max":1253.046875,"ha":1286,"o":"m 1128 1012 l 1253 1012 l 1075 0 l 951 0 l 1128 1012 m 217 0 l 374 897 l 105 897 l 124 1012 l 517 1012 l 444 596 l 649 596 q 871 522 802 596 q 923 374 923 468 q 915 297 923 339 q 793 73 889 147 q 544 0 697 0 l 217 0 m 790 348 q 622 483 790 483 l 424 483 l 360 112 l 558 112 q 785 297 753 112 q 790 348 790 324 "},"&":{"x_min":58.328125,"x_max":919.671875,"ha":975,"o":"m 590 176 l 330 544 q 218 417 256 484 q 180 280 180 350 q 232 142 180 194 q 370 90 284 90 q 484 112 428 90 q 590 176 539 134 m 919 543 q 847 345 892 435 q 739 183 803 256 l 867 0 l 713 0 l 649 94 q 509 9 583 37 q 354 -19 435 -19 q 138 54 219 -19 q 58 250 58 128 q 114 447 58 354 q 282 619 171 540 q 255 682 263 650 q 246 751 246 714 q 260 838 246 797 q 300 914 274 880 q 405 1000 342 969 q 542 1030 469 1030 q 638 1018 590 1030 q 735 982 686 1006 l 714 858 q 623 907 668 890 q 535 923 577 923 q 412 879 459 923 q 364 768 364 836 q 376 709 364 738 q 430 620 387 680 l 678 267 q 756 391 724 321 q 806 543 789 460 l 919 543 "},"Ð":{"x_min":0,"x_max":908.8125,"ha":969,"o":"m 217 1012 l 482 1012 q 800 913 693 1012 q 908 617 908 813 q 867 369 908 489 q 754 166 826 249 q 570 41 680 82 q 306 0 459 0 l 40 0 l 122 474 l 0 474 l 17 572 l 139 572 l 217 1012 m 320 900 l 263 572 l 468 572 l 451 474 l 246 474 l 183 112 l 344 112 q 665 244 552 112 q 778 617 778 377 q 705 831 778 763 q 476 900 632 900 l 320 900 "},"I":{"x_min":33.90625,"x_max":335.046875,"ha":368,"o":"m 210 1012 l 335 1012 l 157 0 l 33 0 l 210 1012 "},"G":{"x_min":56.296875,"x_max":906.109375,"ha":969,"o":"m 682 151 l 729 416 l 527 416 l 546 529 l 869 529 l 790 83 q 614 7 710 33 q 421 -19 518 -19 q 152 86 249 -19 q 56 380 56 191 q 114 678 56 537 q 278 914 173 819 q 420 1002 343 973 q 592 1030 497 1030 q 756 1006 678 1030 q 906 934 834 982 l 881 788 q 752 886 826 852 q 595 919 678 919 q 424 878 497 919 q 292 751 350 837 q 214 578 242 678 q 185 376 185 479 q 251 163 185 234 q 446 91 316 91 q 571 106 510 91 q 682 151 632 122 "},"`":{"x_min":237.375,"x_max":485.609375,"ha":625,"o":"m 357 1110 l 485 857 l 391 857 l 237 1110 l 357 1110 "},"·":{"x_min":142.421875,"x_max":301.8125,"ha":397,"o":"m 172 568 l 301 568 l 271 396 l 142 396 l 172 568 "},"r":{"x_min":44.078125,"x_max":578.53125,"ha":513,"o":"m 557 644 q 518 659 539 654 q 471 665 496 665 q 314 589 381 665 q 225 387 246 514 l 155 0 l 44 0 l 177 759 l 290 759 l 268 641 q 375 742 313 707 q 507 777 436 777 q 543 775 525 777 q 578 767 560 773 l 557 644 "},"₤":{"x_min":29.84375,"x_max":796.234375,"ha":795,"o":"m 359 362 l 316 115 l 644 115 l 623 0 l 29 0 l 50 115 l 193 115 l 236 362 l 112 362 l 130 459 l 253 459 l 271 560 l 147 560 l 165 657 l 288 657 l 293 689 q 405 948 325 866 q 626 1030 484 1030 q 711 1020 668 1030 q 796 990 754 1010 l 775 866 q 697 908 737 893 q 619 922 657 922 q 483 868 529 922 q 413 673 438 814 l 411 657 l 647 657 l 630 560 l 394 560 l 376 459 l 612 459 l 594 362 l 359 362 "},"¿":{"x_min":46.125,"x_max":531.046875,"ha":663,"o":"m 373 840 l 404 1012 l 527 1012 l 497 840 l 373 840 m 509 58 q 384 0 446 19 q 257 -18 322 -18 q 102 32 159 -18 q 46 170 46 83 q 79 301 46 240 q 185 429 111 362 l 247 486 q 317 564 299 532 q 344 657 334 596 l 360 740 l 476 740 l 457 636 q 422 528 446 572 q 331 421 398 483 l 265 360 q 194 277 215 313 q 173 202 173 241 q 207 122 173 151 q 298 92 240 92 q 407 117 347 92 q 531 185 467 141 l 509 58 "},"ý":{"x_min":-31.53125,"x_max":753.859375,"ha":739,"o":"m 309 -70 q 182 -252 231 -216 q 57 -288 133 -288 l -31 -288 l -12 -184 l 51 -184 q 132 -155 99 -184 q 205 -44 165 -127 l 241 27 l 89 759 l 208 759 l 321 177 l 635 759 l 753 759 l 309 -70 m 589 1110 l 710 1110 l 466 855 l 372 855 l 589 1110 "},"x":{"x_min":-32.890625,"x_max":749.78125,"ha":739,"o":"m 749 759 l 436 387 l 628 0 l 499 0 l 355 301 l 103 0 l -32 0 l 303 400 l 124 759 l 253 759 l 384 484 l 613 759 l 749 759 "},"è":{"x_min":57.65625,"x_max":713.484375,"ha":769,"o":"m 600 447 q 603 470 602 458 q 604 493 604 481 q 561 623 604 575 q 442 672 517 672 q 294 613 358 672 q 198 446 230 554 l 600 447 m 698 349 l 176 349 q 171 309 172 324 q 170 283 170 294 q 222 137 170 189 q 369 86 274 86 q 508 104 442 86 q 630 158 573 122 l 608 34 q 483 -6 548 7 q 352 -19 419 -19 q 133 55 210 -19 q 57 270 57 131 q 95 491 57 389 q 207 673 133 593 q 320 750 255 723 q 460 777 386 777 q 644 700 576 777 q 713 493 713 623 q 709 426 713 461 q 698 349 706 390 m 425 1110 l 553 857 l 459 857 l 305 1110 l 425 1110 "},"º":{"x_min":50.1875,"x_max":577.171875,"ha":589,"o":"m 480 800 q 450 913 480 874 q 361 952 420 952 q 238 880 290 952 q 187 705 187 807 q 217 591 187 631 q 303 551 247 551 q 429 622 378 551 q 480 800 480 694 m 379 1030 q 523 972 469 1030 q 577 816 577 914 q 496 570 577 667 q 290 473 415 473 q 146 534 199 473 q 92 699 92 595 q 104 791 92 746 q 138 878 115 836 q 239 990 176 950 q 379 1030 303 1030 m 63 401 l 484 401 l 470 318 l 50 318 l 63 401 "},"Ø":{"x_min":-42.734375,"x_max":1011.234375,"ha":983,"o":"m 746 837 q 674 898 718 878 q 570 919 630 919 q 391 864 469 919 q 257 699 314 809 q 200 545 219 626 q 180 387 180 464 q 183 327 180 356 q 194 267 187 297 l 746 837 m 786 756 l 232 183 q 308 114 263 137 q 413 91 353 91 q 592 146 514 91 q 726 311 670 202 q 783 466 764 387 q 803 629 803 546 q 798 698 803 667 q 786 756 794 730 m 97 166 q 62 276 73 221 q 50 389 50 332 q 87 616 50 502 q 191 822 124 730 q 362 978 267 926 q 573 1030 458 1030 q 717 1004 653 1030 q 832 926 781 978 l 956 1057 l 1011 990 l 883 855 q 920 749 908 806 q 932 625 932 691 q 896 393 932 505 q 792 189 860 280 q 619 31 714 83 q 410 -19 525 -19 q 259 8 325 -19 q 146 92 192 37 l 12 -44 l -42 22 l 97 166 "},"÷":{"x_min":132.25,"x_max":914.921875,"ha":1047,"o":"m 448 769 l 598 769 l 598 602 l 448 602 l 448 769 m 448 267 l 598 267 l 598 101 l 448 101 l 448 267 m 132 493 l 914 493 l 914 377 l 132 377 l 132 493 "},"h":{"x_min":44.078125,"x_max":707.390625,"ha":792,"o":"m 696 458 l 616 0 l 503 0 l 583 453 q 592 510 588 485 q 595 548 595 534 q 562 637 595 605 q 472 669 530 669 q 315 601 381 669 q 229 421 249 533 l 155 0 l 44 0 l 229 1055 l 341 1055 l 268 640 q 377 740 311 704 q 517 777 444 777 q 657 723 607 777 q 707 571 707 669 q 704 518 707 546 q 696 458 701 491 "},"Ꙇ":{"x_min":82.25,"x_max":364.890625,"ha":442,"o":"m 94 348 l 210 1012 l 334 1012 l 218 348 q 220 166 195 217 q 326 115 244 115 l 364 115 l 344 0 l 297 0 q 111 82 159 0 q 94 348 63 165 "},".":{"x_min":72.5625,"x_max":231.28125,"ha":397,"o":"m 102 172 l 231 172 l 201 0 l 72 0 l 102 172 "},"₱":{"x_min":33.90625,"x_max":818.609375,"ha":795,"o":"m 600 634 l 269 634 l 248 519 l 404 519 q 564 579 509 519 q 600 634 588 602 m 290 756 l 279 695 l 617 695 q 621 750 621 720 l 621 756 l 290 756 m 155 695 l 166 756 l 94 756 l 106 817 l 177 817 l 210 1012 l 496 1012 q 686 948 620 1012 q 747 817 735 899 l 818 817 l 807 756 l 751 756 q 747 695 751 725 l 803 695 l 791 634 l 735 634 q 655 499 711 554 q 383 406 558 406 l 229 406 l 157 0 l 33 0 l 144 634 l 79 634 l 90 695 l 155 695 m 301 817 l 610 817 q 583 860 600 842 q 476 900 545 900 l 314 900 l 301 817 "},";":{"x_min":1.359375,"x_max":333.6875,"ha":421,"o":"m 109 172 l 238 172 l 217 55 l 80 -161 l 1 -161 l 88 55 l 109 172 m 204 718 l 333 718 l 303 545 l 174 545 l 204 718 "},"f":{"x_min":84.78125,"x_max":597.515625,"ha":439,"o":"m 597 1055 l 579 951 l 472 951 q 383 924 411 951 q 342 826 356 897 l 330 759 l 515 759 l 498 662 l 314 662 l 198 0 l 84 0 l 201 662 l 94 662 l 109 759 l 217 759 l 226 812 q 307 1001 249 946 q 491 1055 366 1055 l 597 1055 "},"ꙇ":{"x_min":89.328125,"x_max":322.15625,"ha":423,"o":"m 296 759 l 211 275 q 210 138 193 171 q 292 105 228 105 l 322 105 l 303 0 l 261 0 q 112 65 150 0 q 99 275 73 130 l 184 759 l 296 759 "},"A":{"x_min":-66.796875,"x_max":768.78125,"ha":855,"o":"m 460 1012 l 599 1012 l 768 0 l 639 0 l 601 259 l 192 259 l 63 0 l -66 0 l 460 1012 m 504 877 l 248 373 l 582 373 l 504 877 "},"6":{"x_min":78.671875,"x_max":739.9375,"ha":795,"o":"m 573 375 q 534 511 573 461 q 425 560 494 560 q 267 479 331 560 q 202 279 202 398 q 242 139 202 189 q 351 88 281 88 q 510 171 446 88 q 573 375 573 255 m 739 988 l 718 864 q 637 903 683 889 q 539 916 592 916 q 337 828 413 916 q 222 552 260 740 q 326 639 267 610 q 453 669 385 669 q 631 597 564 669 q 697 405 697 526 q 665 221 697 306 q 570 71 632 136 q 470 4 527 27 q 349 -19 413 -19 q 151 69 223 -19 q 78 312 78 158 q 111 589 78 456 q 204 820 145 722 q 357 977 267 923 q 554 1030 446 1030 q 648 1020 602 1030 q 739 988 695 1009 "},"O":{"x_min":50.1875,"x_max":933.90625,"ha":983,"o":"m 570 919 q 391 865 468 919 q 256 698 314 810 q 200 547 219 627 q 181 385 181 467 q 241 168 181 244 q 413 91 302 91 q 592 146 514 91 q 726 311 670 202 q 783 464 763 384 q 803 625 803 545 q 741 842 803 765 q 570 919 680 919 m 410 -19 q 146 90 242 -19 q 50 393 50 201 q 87 617 50 503 q 191 822 124 732 q 363 979 268 927 q 573 1030 459 1030 q 837 921 741 1030 q 933 622 933 811 q 897 393 933 505 q 792 189 860 280 q 619 31 714 83 q 410 -19 525 -19 "},"n":{"x_min":44.078125,"x_max":707.390625,"ha":792,"o":"m 696 458 l 616 0 l 503 0 l 583 453 q 592 510 588 485 q 595 548 595 534 q 562 637 595 605 q 472 669 530 669 q 316 602 381 669 q 231 421 251 535 l 155 0 l 44 0 l 176 759 l 288 759 l 265 640 q 379 741 313 706 q 517 777 444 777 q 657 723 607 777 q 707 571 707 669 q 704 518 707 546 q 696 458 701 491 "},"3":{"x_min":2.71875,"x_max":714.84375,"ha":795,"o":"m 198 987 q 328 1020 265 1009 q 452 1030 391 1030 q 643 971 573 1030 q 714 811 714 911 q 658 642 714 712 q 504 545 602 571 q 617 470 581 521 q 653 333 653 418 q 618 181 653 252 q 517 58 583 109 q 397 0 467 18 q 237 -19 328 -19 q 121 -7 180 -19 q 2 30 63 5 l 25 160 q 140 107 82 124 q 259 90 198 90 q 455 159 380 90 q 529 337 529 227 q 482 446 529 408 q 345 484 434 484 l 240 484 l 259 596 l 370 596 q 530 647 472 596 q 588 787 588 699 q 545 886 588 851 q 425 921 503 921 q 306 907 367 921 q 179 865 244 893 l 198 987 "},"9":{"x_min":54.9375,"x_max":717.5625,"ha":795,"o":"m 54 22 l 77 147 q 158 107 112 121 q 255 94 203 94 q 458 183 381 94 q 573 459 535 271 q 468 372 528 402 q 341 341 409 341 q 164 413 229 341 q 99 605 99 484 q 131 789 99 704 q 226 938 163 874 q 325 1007 269 983 q 444 1030 381 1030 q 644 941 571 1030 q 717 698 717 852 q 683 421 717 555 q 590 190 649 288 q 437 33 526 87 q 240 -19 348 -19 q 146 -9 192 -19 q 54 22 99 1 m 221 637 q 261 500 221 551 q 369 450 301 450 q 528 531 464 450 q 592 731 592 611 q 553 871 592 821 q 443 922 513 922 q 285 839 349 922 q 221 637 221 757 "},"ꙣ":{"x_min":-17.96875,"x_max":1162.140625,"ha":1156,"o":"m 74 99 q 169 184 135 126 q 304 615 254 327 l 329 759 l 1162 759 l 1144 659 l 774 659 l 677 99 l 766 99 l 715 -191 l 625 -191 l 659 0 l 105 0 l 71 -191 l -17 -191 l 32 99 l 74 99 m 237 99 l 563 99 l 661 659 l 425 659 l 409 564 q 262 136 359 285 l 237 99 "},"l":{"x_min":44.078125,"x_max":341.140625,"ha":347,"o":"m 229 1055 l 341 1055 l 155 0 l 44 0 l 229 1055 "},"¤":{"x_min":57.65625,"x_max":739.9375,"ha":795,"o":"m 543 673 l 670 815 l 739 737 l 613 597 q 647 517 636 557 q 658 434 658 476 q 647 353 658 392 q 611 275 635 314 l 738 134 l 668 58 l 542 198 q 471 158 506 171 q 398 145 436 145 q 326 158 363 145 q 252 196 290 170 l 126 55 l 57 133 l 183 273 q 149 355 161 315 q 138 434 138 395 q 149 517 138 478 q 185 594 161 556 l 58 734 l 128 812 l 255 672 q 324 711 288 698 q 398 723 359 723 q 471 711 435 723 q 543 673 506 699 m 562 436 q 515 564 562 512 q 398 616 467 616 q 282 564 330 616 q 233 436 233 512 q 281 305 233 358 q 398 252 329 252 q 515 306 467 252 q 562 436 562 359 "},"4":{"x_min":22.375,"x_max":706.03125,"ha":795,"o":"m 537 1012 l 693 1012 l 576 352 l 706 352 l 686 238 l 556 238 l 515 0 l 392 0 l 434 238 l 22 238 l 46 370 l 537 1012 m 548 893 l 142 352 l 453 352 l 548 893 "},"p":{"x_min":-3.71875,"x_max":735.546875,"ha":794,"o":"m 619 467 q 580 620 619 567 q 468 673 541 673 q 372 644 418 673 q 291 562 327 616 q 236 432 257 508 q 216 282 216 356 q 255 135 216 187 q 365 84 294 84 q 464 112 418 84 q 542 193 509 140 q 598 324 576 248 q 619 467 619 399 m 271 644 q 378 744 317 710 q 515 777 439 777 q 677 701 619 777 q 735 487 735 625 q 699 272 735 375 q 595 90 663 170 q 494 8 551 36 q 374 -19 437 -19 q 252 13 302 -19 q 178 113 203 47 l 108 -288 l -3 -288 l 180 759 l 291 759 l 271 644 "},"à":{"x_min":51.546875,"x_max":683.65625,"ha":766,"o":"m 671 433 l 595 0 l 482 0 l 503 115 q 390 13 454 47 q 250 -19 327 -19 q 107 39 162 -19 q 51 191 51 99 q 146 402 51 324 q 410 479 242 479 l 566 479 l 572 512 q 574 524 573 518 q 575 544 575 531 q 530 638 575 604 q 406 672 486 672 q 293 656 351 672 q 174 609 236 640 l 194 725 q 319 764 258 751 q 436 777 379 777 q 620 719 557 777 q 683 550 683 661 q 680 497 683 527 q 671 433 677 467 m 550 381 l 437 381 q 233 340 299 381 q 167 213 167 299 q 201 120 167 153 q 295 86 234 86 q 454 159 386 86 q 545 354 522 231 l 550 381 m 418 1110 l 546 857 l 452 857 l 298 1110 l 418 1110 "},"Ü":{"x_min":72.5625,"x_max":891.1875,"ha":915,"o":"m 193 1012 l 317 1012 l 210 397 q 200 329 203 356 q 198 282 198 302 q 244 140 198 188 q 382 91 291 91 q 566 163 500 91 q 659 397 632 235 l 767 1012 l 891 1012 l 781 380 q 644 77 745 175 q 368 -19 543 -19 q 152 56 231 -19 q 72 263 72 132 q 75 317 72 287 q 84 380 78 346 l 193 1012 m 400 1268 l 524 1268 l 499 1130 l 376 1130 l 400 1268 m 639 1268 l 762 1268 l 739 1130 l 615 1130 l 639 1268 "},"ó":{"x_min":57.65625,"x_max":723.453125,"ha":764,"o":"m 317 -19 q 127 62 197 -19 q 57 287 57 145 q 81 456 57 370 q 143 600 105 541 q 279 734 204 691 q 447 777 353 777 q 635 697 564 777 q 707 486 707 616 q 683 306 707 396 q 621 158 659 217 q 486 23 561 67 q 317 -19 412 -19 m 173 291 q 212 137 173 188 q 330 86 251 86 q 517 195 442 86 q 591 473 591 305 q 551 621 591 571 q 435 672 512 672 q 322 639 371 672 q 233 539 272 606 q 189 424 204 489 q 173 291 173 360 m 602 1110 l 723 1110 l 479 855 l 385 855 l 602 1110 "},"₴":{"x_min":48.15625,"x_max":919.671875,"ha":967,"o":"m 204 456 q 223 476 207 461 q 360 556 277 526 l 80 556 l 94 639 l 652 639 q 670 651 661 644 q 723 752 711 680 q 690 876 737 832 q 543 919 643 919 q 419 901 484 919 q 277 845 354 883 l 300 979 q 443 1018 375 1005 q 576 1030 512 1030 q 797 953 726 1030 q 845 741 869 876 q 812 639 835 684 l 919 639 l 904 556 l 746 556 q 536 465 673 493 l 493 456 l 887 456 l 872 373 l 298 373 q 250 269 261 333 q 284 137 235 183 q 439 91 334 91 q 585 115 509 91 q 744 185 661 139 l 720 44 q 560 -3 636 12 q 420 -19 484 -19 q 173 56 248 -19 q 123 279 97 132 q 151 373 132 330 l 48 373 l 63 456 l 204 456 "}}}
